<?xml version="1.0" encoding="utf-8"?><svg version="1.1" preserveAspectRatio="xMidYMid" xml:space="preserve" width="538.94386pt" height="550.4669399999999pt" viewBox="38.75564 27.71846 538.94386 550.4669399999999" xmlns="http://www.w3.org/2000/svg" xmlns:xlink="http://www.w3.org/1999/xlink"><desc xmlns:eadoc="http://www.siemens.com/eauml/doc"><eadoc:guid>EAID_28EB115A_9FF5_45d1_AD1B_C54059EA6683</eadoc:guid><eadoc:name>01_Load_transmitter</eadoc:name><eadoc:type>Diagram</eadoc:type><eadoc:note></eadoc:note></desc><g transform="matrix(1 0 0 -1 0 768)"><g stroke="#000000" fill="none" fill-rule="evenodd" stroke-width="1" stroke-linecap="round" stroke-linejoin="round" stroke-miterlimit="3" letter-spacing="normal" font-weight="normal" font-style="normal" baseline-shift="0"><g transform="matrix(0.75 0 0 0.75 0 768.200012)"><g transform="matrix(0.95909 0 0 -0.957826 0 0)" font-family="CalibriUnicode" font-size="10"><rect stroke="#C0C0C0" x="391" y="211" width="399" height="198" /><text transform="matrix(1 0 0 1 557 215)" fill="#595959" stroke="none"><tspan dx="0 " x="0" y="9">&lt;</tspan><tspan dx="0 " x="5.333333" y="9">&lt;</tspan><tspan dx="0 " x="10.66667" y="9">I</tspan><tspan dx="0 " x="13" y="9">n</tspan><tspan dx="0 " x="18.33333" y="9">i</tspan><tspan dx="0 0 " x="20.66666" y="9">ti</tspan><tspan dx="0 " x="26.33333" y="9">a</tspan><tspan dx="0 " x="31.33333" y="9">l</tspan><tspan dx="0 " x="33.66666" y="9">i</tspan><tspan dx="0 " x="36" y="9">z</tspan><tspan dx="0 " x="39.66666" y="9">a</tspan><tspan dx="0 0 " x="44.66666" y="9">ti</tspan><tspan dx="0 " x="50.33333" y="9">o</tspan><tspan dx="0 " x="55.66666" y="9">n</tspan><tspan dx="0 " x="61" y="9">&gt;</tspan><tspan dx="0 " x="66" y="9">&gt;</tspan></text><rect stroke="#C0C0C0" x="393" y="437" width="399" height="142" /><text transform="matrix(1 0 0 1 561 441)" fill="#595959" stroke="none"><tspan dx="0 " x="0" y="9">&lt;</tspan><tspan dx="0 " x="5" y="9">&lt;</tspan><tspan dx="0 " x="10" y="9">C</tspan><tspan dx="0 " x="15.33333" y="9">o</tspan><tspan dx="0 " x="20.66667" y="9">n</tspan><tspan dx="0 " x="26" y="9">n</tspan><tspan dx="0 " x="31.33333" y="9">e</tspan><tspan dx="0 " x="36.33333" y="9">c</tspan><tspan dx="0 0 " x="40.66666" y="9">ti</tspan><tspan dx="0 " x="46.33333" y="9">o</tspan><tspan dx="0 " x="51.66666" y="9">n</tspan><tspan dx="0 " x="57" y="9">&gt;</tspan><tspan dx="0 " x="62" y="9">&gt;</tspan></text><rect fill="#D0D0D0" stroke="none" x="263" y="53" width="90" height="50" /><rect stroke="none" fill="#DDF4F5" x="260" y="50" width="89" height="49" /><rect stroke="#9A8484" x="260" y="50" width="89" height="50" /><rect stroke="#9A8484" x="260" y="50" width="89" height="49" /><text transform="matrix(1 0 0 1 283 53)" fill="#595959" stroke="none"><tspan dx="0 " x="0" y="9">compositor</tspan></text><path stroke="#9A8484" stroke-dasharray="7,4" d="M305 100L305 794" /><rect stroke="none" fill="#DDF4F5" x="300" y="135" width="9" height="570" /><rect stroke="#9A8484" x="300" y="135" width="9" height="571" /><rect fill="#D0D0D0" stroke="none" x="431" y="53" width="137" height="50" /><rect stroke="none" fill="#DDF4F5" x="428" y="50" width="136" height="49" /><rect stroke="#9A8484" x="428" y="50" width="136" height="50" /><rect stroke="#9A8484" x="428" y="50" width="136" height="49" /><text transform="matrix(1 0 0 1 455 53)" fill="#595959" stroke="none"><tspan dx="0 " x="0" y="9">w</tspan><tspan dx="0 " x="7" y="9">a</tspan><tspan dx="0 " x="12" y="9">l</tspan><tspan dx="0 " x="14.33333" y="9">t</tspan><tspan dx="0 " x="17.66667" y="9">h</tspan><tspan dx="0 " x="23" y="9">a</tspan><tspan dx="0 " x="28" y="9">m</tspan><tspan dx="0 " x="36" y="9">-</tspan><tspan dx="0 " x="39" y="9">t</tspan><tspan dx="0 " x="42.33333" y="9">r</tspan><tspan dx="0 " x="45.66666" y="9">a</tspan><tspan dx="0 " x="50.66666" y="9">n</tspan><tspan dx="0 " x="56" y="9">s</tspan><tspan dx="0 " x="59.66666" y="9">m</tspan><tspan dx="0 " x="67.66666" y="9">i</tspan><tspan dx="0 0 " x="70" y="9">tt</tspan><tspan dx="0 " x="76.66666" y="9">e</tspan><tspan dx="0 " x="81.66666" y="9">r</tspan></text><path stroke="#9A8484" stroke-dasharray="7,4" d="M496 100L496 794" /><rect stroke="none" fill="#DDF4F5" x="491" y="170" width="9" height="535" /><rect stroke="#9A8484" x="491" y="170" width="9" height="536" /><rect stroke="none" fill="#DDF4F5" x="496" y="255" width="9" height="10" /><rect stroke="#9A8484" x="496" y="255" width="9" height="11" /><rect stroke="none" fill="#DDF4F5" x="496" y="325" width="9" height="372" /><rect stroke="#9A8484" x="496" y="325" width="9" height="373" /><rect stroke="none" fill="#DDF4F5" x="501" y="361" width="9" height="10" /><rect stroke="#9A8484" x="501" y="361" width="9" height="11" /><rect stroke="none" fill="#DDF4F5" x="501" y="487" width="9" height="10" /><rect stroke="#9A8484" x="501" y="487" width="9" height="11" /><rect stroke="none" fill="#DDF4F5" x="501" y="515" width="9" height="149" /><rect stroke="#9A8484" x="501" y="515" width="9" height="150" /><rect stroke="none" fill="#DDF4F5" x="506" y="561" width="9" height="103" /><rect stroke="#9A8484" x="506" y="561" width="9" height="104" /><rect stroke="none" fill="#DDF4F5" x="511" y="618" width="9" height="10" /><rect stroke="#9A8484" x="511" y="618" width="9" height="11" /><rect stroke="none" fill="#DDF4F5" x="511" y="654" width="9" height="10" /><rect stroke="#9A8484" x="511" y="654" width="9" height="11" /><rect stroke="none" fill="#DDF4F5" x="501" y="687" width="9" height="10" /><rect stroke="#9A8484" x="501" y="687" width="9" height="11" /><path fill="#D0D0D0" stroke="none" d="M77 56.5C77 54.01 79.01 52 81.5 52C83.99 52 86 54.01 86 56.5C86 58.99 83.99 61 81.5 61C79.01 61 77 58.99 77 56.5" /><path stroke="none" fill="#FEF2DD" d="M75 54.5C75 52.01 77.01 50 79.5 50C81.99 50 84 52.01 84 54.5C84 56.99 81.99 59 79.5 59C77.01 59 75 56.99 75 54.5" /><path stroke="#9A8484" d="M75 54.5C75 52.01 77.01 50 79.5 50C81.99 50 84 52.01 84 54.5C84 56.99 81.99 59 79.5 59C77.01 59 75 56.99 75 54.5M80 60V70M75 65H85M75 80L80 70m5 10L80 70" /><text transform="matrix(1 0 0 1 65 85)" fill="#595959" stroke="none"><desc xmlns:eadoc="http://www.siemens.com/eauml/doc"><eadoc:guid>EAID_BA999B1D_0930_41c4_8650_B89BB80BA619</eadoc:guid><eadoc:name>System</eadoc:name><eadoc:type>Actor</eadoc:type><eadoc:note></eadoc:note></desc><tspan dx="0 " x="0" y="9">System</tspan></text><path stroke="#9A8484" stroke-dasharray="7,4" d="M80 98L80 794" /><rect stroke="none" fill="#FEF2DD" x="75" y="135" width="9" height="570" /><rect stroke="#9A8484" x="75" y="135" width="9" height="571" /><rect fill="#D0D0D0" stroke="none" x="132" y="53" width="90" height="50" /><rect stroke="none" fill="#DDF4F5" x="129" y="50" width="89" height="49" /><rect stroke="#9A8484" x="129" y="50" width="89" height="50" /><rect stroke="#9A8484" x="129" y="50" width="89" height="49" /><text transform="matrix(1 0 0 1 154 53)" fill="#595959" stroke="none"><tspan dx="0 " x="0" y="9">Client app</tspan></text><path stroke="#9A8484" stroke-dasharray="7,4" d="M174 100L174 794" /><path stroke="#69738C" d="M85 135H300" /><path stroke="#69738C" fill="#69738C" d="M288 131v4v4l12 -4l-12 -4" /><path stroke="#69738C" d="M310 170H491" /><path stroke="#69738C" fill="#69738C" d="M479 166v4v4l12 -4l-12 -4" /><path d="M501 240h40m0 0v15m0 0H506" /><path fill="#69738C" d="M518 251v4v4l-12 -4l12 -4" /><path stroke="#69738C" d="M501 310h40m0 0v15m0 0H506" /><path stroke="#69738C" fill="#69738C" d="M518 321v4v4l-12 -4l12 -4" /><path stroke="#69738C" d="M506 346h40m0 0v15m0 0H511" /><path stroke="#69738C" fill="#69738C" d="M523 357v4v4l-12 -4l12 -4" /><path d="M506 472h40m0 0v15m0 0H511" /><path fill="#69738C" d="M523 483v4v4l-12 -4l12 -4" /><path d="M506 500h40m0 0v15m0 0H511" /><path fill="#69738C" d="M523 511v4v4l-12 -4l12 -4" /><path d="M511 546h40m0 0v15m0 0H516" /><path fill="#69738C" d="M528 557v4v4l-12 -4l12 -4" /><path d="M516 603h40m0 0v15m0 0H521" /><path fill="#69738C" d="M533 614v4v4l-12 -4l12 -4" /><path d="M516 639h40m0 0v15m0 0H521" /><path fill="#69738C" d="M533 650v4v4l-12 -4l12 -4" /><path d="M506 672h40m0 0v15m0 0H511" /><path fill="#69738C" d="M523 683v4v4l-12 -4l12 -4" /><g transform="matrix(1 0 0 -1 560 641)"><rect fill="#FFFFFF" stroke="none" x="0" width="142" y="-13" height="13" /></g><text transform="matrix(1 0 0 1 560 641)" fill="#595959" stroke="none"><tspan dx="0 " x="0" y="9">t</tspan><tspan dx="0 " x="3.333333" y="9">r</tspan><tspan dx="0 " x="6.666666" y="9">a</tspan><tspan dx="0 " x="12" y="9">n</tspan><tspan dx="0 " x="17.66667" y="9">s</tspan><tspan dx="0 " x="21.33333" y="9">m</tspan><tspan dx="0 " x="29.66666" y="9">i</tspan><tspan dx="0 0 " x="32" y="9">tt</tspan><tspan dx="0 " x="38.66666" y="9">e</tspan><tspan dx="0 " x="44" y="9">r</tspan><tspan dx="0 " x="47.33333" y="9">_</tspan><tspan dx="0 " x="52.66666" y="9">r</tspan><tspan dx="0 " x="55.99999" y="9">e</tspan><tspan dx="0 " x="61.33332" y="9">m</tspan><tspan dx="0 " x="69.33333" y="9">o</tspan><tspan dx="0 " x="74.66666" y="9">t</tspan><tspan dx="0 " x="78" y="9">e</tspan><tspan dx="0 " x="83" y="9">_</tspan><tspan dx="0 " x="88" y="9">c</tspan><tspan dx="0 " x="92.33334" y="9">r</tspan><tspan dx="0 " x="95.66667" y="9">e</tspan><tspan dx="0 " x="100.6667" y="9">a</tspan><tspan dx="0 " x="105.6667" y="9">t</tspan><tspan dx="0 " x="109" y="9">e</tspan><tspan dx="0 " x="114" y="9">_</tspan><tspan dx="0 " x="119" y="9">s</tspan><tspan dx="0 " x="122.6667" y="9">e</tspan><tspan dx="0 " x="127.6667" y="9">a</tspan><tspan dx="0 " x="132.6667" y="9">t</tspan><tspan dx="0 " x="136" y="9">(</tspan><tspan dx="0 " x="139" y="9">)</tspan></text><g transform="matrix(1 0 0 -1 550 502)"><rect fill="#FFFFFF" stroke="none" x="0" width="139" y="-13" height="13" /></g><text transform="matrix(1 0 0 1 550 502)" fill="#595959" stroke="none"><tspan dx="0 " x="0" y="9">t</tspan><tspan dx="0 " x="3.333333" y="9">r</tspan><tspan dx="0 " x="6.666666" y="9">a</tspan><tspan dx="0 " x="12" y="9">n</tspan><tspan dx="0 " x="17.33333" y="9">s</tspan><tspan dx="0 " x="21" y="9">m</tspan><tspan dx="0 " x="29" y="9">i</tspan><tspan dx="0 0 " x="31.33333" y="9">tt</tspan><tspan dx="0 " x="38" y="9">e</tspan><tspan dx="0 " x="43" y="9">r</tspan><tspan dx="0 " x="46.33333" y="9">_</tspan><tspan dx="0 " x="51.33333" y="9">c</tspan><tspan dx="0 " x="55.66666" y="9">o</tspan><tspan dx="0 " x="61" y="9">n</tspan><tspan dx="0 " x="66.33333" y="9">n</tspan><tspan dx="0 " x="71.66666" y="9">e</tspan><tspan dx="0 " x="76.66666" y="9">c</tspan><tspan dx="0 " x="81" y="9">t</tspan><tspan dx="0 " x="84.33334" y="9">_</tspan><tspan dx="0 " x="89.33334" y="9">t</tspan><tspan dx="0 " x="92.66667" y="9">o</tspan><tspan dx="0 " x="98.00001" y="9">_</tspan><tspan dx="0 " x="103" y="9">r</tspan><tspan dx="0 " x="106.3333" y="9">e</tspan><tspan dx="0 " x="111.3333" y="9">m</tspan><tspan dx="0 " x="119.3333" y="9">o</tspan><tspan dx="0 " x="124.6667" y="9">t</tspan><tspan dx="0 " x="128" y="9">e</tspan><tspan dx="0 " x="133" y="9">(</tspan><tspan dx="0 " x="136" y="9">)</tspan></text><g transform="matrix(1 0 0 -1 545 242)"><rect fill="#FFFFFF" stroke="none" x="0" width="76" y="-13" height="13" /></g><text transform="matrix(1 0 0 1 545 242)" fill="#595959" stroke="none"><tspan dx="0 " x="0" y="9">wet_module_init()</tspan></text><g transform="matrix(1 0 0 -1 550 474)"><rect fill="#FFFFFF" stroke="none" x="0" width="132" y="-13" height="13" /></g><text transform="matrix(1 0 0 1 550 474)" fill="#595959" stroke="none"><tspan dx="0 " x="0" y="9">t</tspan><tspan dx="0 " x="3.333333" y="9">r</tspan><tspan dx="0 " x="6.666666" y="9">a</tspan><tspan dx="0 " x="12" y="9">n</tspan><tspan dx="0 " x="17.66667" y="9">s</tspan><tspan dx="0 " x="21.33333" y="9">m</tspan><tspan dx="0 " x="29.66666" y="9">i</tspan><tspan dx="0 0 " x="32" y="9">tt</tspan><tspan dx="0 " x="38.66666" y="9">e</tspan><tspan dx="0 " x="44" y="9">r</tspan><tspan dx="0 " x="47.33333" y="9">_</tspan><tspan dx="0 " x="52.33333" y="9">g</tspan><tspan dx="0 " x="57.33333" y="9">e</tspan><tspan dx="0 " x="62.33333" y="9">t</tspan><tspan dx="0 " x="65.66666" y="9">_</tspan><tspan dx="0 " x="70.66666" y="9">s</tspan><tspan dx="0 " x="74.33333" y="9">e</tspan><tspan dx="0 " x="79.33333" y="9">r</tspan><tspan dx="0 " x="82.66666" y="9">v</tspan><tspan dx="0 " x="87.33333" y="9">e</tspan><tspan dx="0 " x="92.33333" y="9">r</tspan><tspan dx="0 " x="95.66666" y="9">_</tspan><tspan dx="0 " x="100.6667" y="9">c</tspan><tspan dx="0 " x="105" y="9">o</tspan><tspan dx="0 " x="110.3333" y="9">n</tspan><tspan dx="0 0 " x="115.6667" y="9">fi</tspan><tspan dx="0 " x="121" y="9">g</tspan><tspan dx="0 " x="126" y="9">(</tspan><tspan dx="0 " x="129" y="9">)</tspan></text><g transform="matrix(1 0 0 -1 550 674)"><rect fill="#FFFFFF" stroke="none" x="0" width="87" y="-13" height="13" /></g><text transform="matrix(1 0 0 1 550 674)" fill="#595959" stroke="none"><tspan dx="0 " x="0" y="9">waltham_mainloop()</tspan></text><g transform="matrix(1 0 0 -1 560 605)"><rect fill="#FFFFFF" stroke="none" x="0" width="203" y="-13" height="13" /></g><text transform="matrix(1 0 0 1 560 605)" fill="#595959" stroke="none"><tspan dx="0 " x="0" y="9">t</tspan><tspan dx="0 " x="3.333333" y="9">r</tspan><tspan dx="0 " x="6.666666" y="9">a</tspan><tspan dx="0 " x="12" y="9">n</tspan><tspan dx="0 " x="17.33333" y="9">s</tspan><tspan dx="0 " x="21" y="9">m</tspan><tspan dx="0 " x="29" y="9">i</tspan><tspan dx="0 0 " x="31.33333" y="9">tt</tspan><tspan dx="0 " x="38" y="9">e</tspan><tspan dx="0 " x="43" y="9">r</tspan><tspan dx="0 " x="46.33333" y="9">_</tspan><tspan dx="0 " x="51.33333" y="9">r</tspan><tspan dx="0 " x="54.66666" y="9">e</tspan><tspan dx="0 " x="59.66666" y="9">m</tspan><tspan dx="0 " x="67.66666" y="9">o</tspan><tspan dx="0 " x="73" y="9">t</tspan><tspan dx="0 " x="76.33334" y="9">e</tspan><tspan dx="0 " x="81.33334" y="9">_</tspan><tspan dx="0 " x="86.33334" y="9">c</tspan><tspan dx="0 " x="90.66667" y="9">r</tspan><tspan dx="0 " x="94.00001" y="9">e</tspan><tspan dx="0 " x="99.00001" y="9">a</tspan><tspan dx="0 " x="104" y="9">t</tspan><tspan dx="0 " x="107.3333" y="9">e</tspan><tspan dx="0 " x="112.3333" y="9">_</tspan><tspan dx="0 " x="117.3333" y="9">o</tspan><tspan dx="0 " x="122.6667" y="9">u</tspan><tspan dx="0 " x="128" y="9">t</tspan><tspan dx="0 " x="131.3333" y="9">p</tspan><tspan dx="0 " x="136.6667" y="9">u</tspan><tspan dx="0 " x="142" y="9">t</tspan><tspan dx="0 " x="145.3333" y="9">_</tspan><tspan dx="0 " x="150.3333" y="9">w</tspan><tspan dx="0 " x="157.6667" y="9">i</tspan><tspan dx="0 " x="160" y="9">t</tspan><tspan dx="0 " x="163.3333" y="9">h</tspan><tspan dx="0 " x="168.6666" y="9">_</tspan><tspan dx="0 " x="173.6666" y="9">n</tspan><tspan dx="0 " x="179" y="9">a</tspan><tspan dx="0 " x="184" y="9">m</tspan><tspan dx="0 " x="192" y="9">e</tspan><tspan dx="0 " x="197" y="9">(</tspan><tspan dx="0 " x="200" y="9">)</tspan></text><g transform="matrix(1 0 0 -1 354 156)"><rect fill="#FFFFFF" stroke="none" x="0" width="96" y="-13" height="13" /></g><text transform="matrix(1 0 0 1 354 156)" fill="#595959" stroke="none"><tspan dx="0 " x="0" y="9">weston_load_module()</tspan></text><g transform="matrix(1 0 0 -1 555 548)"><rect fill="#FFFFFF" stroke="none" x="0" width="84" y="-13" height="13" /></g><text transform="matrix(1 0 0 1 555 548)" fill="#595959" stroke="none"><tspan dx="0 " x="0" y="9">c</tspan><tspan dx="0 " x="4.333333" y="9">o</tspan><tspan dx="0 " x="10" y="9">n</tspan><tspan dx="0 " x="15.33333" y="9">n</tspan><tspan dx="0 " x="20.66667" y="9">_</tspan><tspan dx="0 " x="25.66667" y="9">r</tspan><tspan dx="0 " x="29" y="9">e</tspan><tspan dx="0 " x="34" y="9">a</tspan><tspan dx="0 " x="39" y="9">d</tspan><tspan dx="0 " x="44.33333" y="9">y</tspan><tspan dx="0 " x="49" y="9">_</tspan><tspan dx="0 " x="54" y="9">n</tspan><tspan dx="0 " x="59.33333" y="9">o</tspan><tspan dx="0 0 " x="64.66666" y="9">ti</tspan><tspan dx="0 " x="70.33333" y="9">f</tspan><tspan dx="0 " x="73.33333" y="9">y</tspan><tspan dx="0 " x="77.99999" y="9">(</tspan><tspan dx="0 " x="80.99999" y="9">)</tspan></text><g transform="matrix(1 0 0 -1 149 121)"><rect fill="#FFFFFF" stroke="none" x="0" width="90" y="-13" height="13" /></g><text transform="matrix(1 0 0 1 149 121)" fill="#595959" stroke="none"><tspan dx="0 " x="0" y="9">Start agl-compositor()</tspan></text><g transform="matrix(1 0 0 -1 545 312)"><rect fill="#FFFFFF" stroke="none" x="0" width="132" y="-13" height="13" /></g><text transform="matrix(1 0 0 1 545 312)" fill="#595959" stroke="none"><tspan dx="0 " x="0" y="9">t</tspan><tspan dx="0 " x="3.333333" y="9">r</tspan><tspan dx="0 " x="6.666666" y="9">a</tspan><tspan dx="0 " x="12" y="9">n</tspan><tspan dx="0 " x="17.66667" y="9">s</tspan><tspan dx="0 " x="21.33333" y="9">m</tspan><tspan dx="0 " x="29.66666" y="9">i</tspan><tspan dx="0 0 " x="32" y="9">tt</tspan><tspan dx="0 " x="38.66666" y="9">e</tspan><tspan dx="0 " x="44" y="9">r</tspan><tspan dx="0 " x="47.33333" y="9">_</tspan><tspan dx="0 " x="52.33333" y="9">g</tspan><tspan dx="0 " x="57.33333" y="9">e</tspan><tspan dx="0 " x="62.33333" y="9">t</tspan><tspan dx="0 " x="65.66666" y="9">_</tspan><tspan dx="0 " x="70.66666" y="9">s</tspan><tspan dx="0 " x="74.33333" y="9">e</tspan><tspan dx="0 " x="79.33333" y="9">r</tspan><tspan dx="0 " x="82.66666" y="9">v</tspan><tspan dx="0 " x="87.33333" y="9">e</tspan><tspan dx="0 " x="92.33333" y="9">r</tspan><tspan dx="0 " x="95.66666" y="9">_</tspan><tspan dx="0 " x="100.6667" y="9">c</tspan><tspan dx="0 " x="105" y="9">o</tspan><tspan dx="0 " x="110.3333" y="9">n</tspan><tspan dx="0 0 " x="115.6667" y="9">fi</tspan><tspan dx="0 " x="121" y="9">g</tspan><tspan dx="0 " x="126" y="9">(</tspan><tspan dx="0 " x="129" y="9">)</tspan></text><g transform="matrix(1 0 0 -1 550 348)"><rect fill="#FFFFFF" stroke="none" x="0" width="139" y="-13" height="13" /></g><text transform="matrix(1 0 0 1 550 348)" fill="#595959" stroke="none"><tspan dx="0 " x="0" y="9">t</tspan><tspan dx="0 " x="3.333333" y="9">r</tspan><tspan dx="0 " x="6.666666" y="9">a</tspan><tspan dx="0 " x="12" y="9">n</tspan><tspan dx="0 " x="17.33333" y="9">s</tspan><tspan dx="0 " x="21" y="9">m</tspan><tspan dx="0 " x="29" y="9">i</tspan><tspan dx="0 0 " x="31.33333" y="9">tt</tspan><tspan dx="0 " x="38" y="9">e</tspan><tspan dx="0 " x="43" y="9">r</tspan><tspan dx="0 " x="46.33333" y="9">_</tspan><tspan dx="0 " x="51.33333" y="9">c</tspan><tspan dx="0 " x="55.66666" y="9">o</tspan><tspan dx="0 " x="61" y="9">n</tspan><tspan dx="0 " x="66.33333" y="9">n</tspan><tspan dx="0 " x="71.66666" y="9">e</tspan><tspan dx="0 " x="76.66666" y="9">c</tspan><tspan dx="0 " x="81" y="9">t</tspan><tspan dx="0 " x="84.33334" y="9">_</tspan><tspan dx="0 " x="89.33334" y="9">t</tspan><tspan dx="0 " x="92.66667" y="9">o</tspan><tspan dx="0 " x="98.00001" y="9">_</tspan><tspan dx="0 " x="103" y="9">r</tspan><tspan dx="0 " x="106.3333" y="9">e</tspan><tspan dx="0 " x="111.3333" y="9">m</tspan><tspan dx="0 " x="119.3333" y="9">o</tspan><tspan dx="0 " x="124.6667" y="9">t</tspan><tspan dx="0 " x="128" y="9">e</tspan><tspan dx="0 " x="133" y="9">(</tspan><tspan dx="0 " x="136" y="9">)</tspan></text></g></g></g></g></svg>