<?xml version="1.0" encoding="utf-8"?><svg version="1.1" preserveAspectRatio="xMidYMid" xml:space="preserve" width="450.46776pt" height="499.46274pt" viewBox="9.98294 27.71846 450.46776 499.46274" xmlns="http://www.w3.org/2000/svg" xmlns:xlink="http://www.w3.org/1999/xlink"><g transform="matrix(1 0 0 -1 0 768)"><g stroke="#000000" fill="none" fill-rule="evenodd" stroke-width="1" stroke-linecap="round" stroke-linejoin="round" stroke-miterlimit="3" letter-spacing="normal" font-weight="normal" font-style="normal" baseline-shift="0"><g transform="matrix(0.75 0 0 0.75 0 768.200012)"><g transform="matrix(0.95909 0 0 -0.957826 0 0)" font-family="CalibriUnicode" font-size="10"><rect fill="#D0D0D0" stroke="none" x="142" y="53" width="137" height="50" /><rect stroke="none" fill="#DDF4F5" x="139" y="50" width="136" height="49" /><rect stroke="#9A8484" x="139" y="50" width="136" height="50" /><rect stroke="#9A8484" x="139" y="50" width="136" height="49" /><text transform="matrix(1 0 0 1 166 53)" fill="#595959" stroke="none"><tspan dx="0 " x="0" y="9">w</tspan><tspan dx="0 " x="7" y="9">a</tspan><tspan dx="0 " x="12" y="9">l</tspan><tspan dx="0 " x="14.33333" y="9">t</tspan><tspan dx="0 " x="17.66667" y="9">h</tspan><tspan dx="0 " x="23" y="9">a</tspan><tspan dx="0 " x="28" y="9">m</tspan><tspan dx="0 " x="36" y="9">-</tspan><tspan dx="0 " x="39" y="9">t</tspan><tspan dx="0 " x="42.33333" y="9">r</tspan><tspan dx="0 " x="45.66666" y="9">a</tspan><tspan dx="0 " x="50.66666" y="9">n</tspan><tspan dx="0 " x="56" y="9">s</tspan><tspan dx="0 " x="59.66666" y="9">m</tspan><tspan dx="0 " x="67.66666" y="9">i</tspan><tspan dx="0 0 " x="70" y="9">tt</tspan><tspan dx="0 " x="76.66666" y="9">e</tspan><tspan dx="0 " x="81.66666" y="9">r</tspan></text><path stroke="#9A8484" stroke-dasharray="7,4" d="M207 100L207 723" /><rect stroke="none" fill="#DDF4F5" x="202" y="129" width="9" height="560" /><rect stroke="#9A8484" x="202" y="129" width="9" height="561" /><rect stroke="none" fill="#DDF4F5" x="207" y="144" width="9" height="537" /><rect stroke="#9A8484" x="207" y="144" width="9" height="538" /><rect stroke="none" fill="#DDF4F5" x="212" y="179" width="9" height="10" /><rect stroke="#9A8484" x="212" y="179" width="9" height="11" /><rect stroke="none" fill="#DDF4F5" x="212" y="214" width="9" height="467" /><rect stroke="#9A8484" x="212" y="214" width="9" height="468" /><rect stroke="none" fill="#DDF4F5" x="217" y="249" width="9" height="297" /><rect stroke="#9A8484" x="217" y="249" width="9" height="298" /><rect stroke="none" fill="#DDF4F5" x="222" y="293" width="9" height="253" /><rect stroke="#9A8484" x="222" y="293" width="9" height="254" /><rect stroke="none" fill="#DDF4F5" x="227" y="328" width="9" height="10" /><rect stroke="#9A8484" x="227" y="328" width="9" height="11" /><rect stroke="none" fill="#DDF4F5" x="227" y="420" width="9" height="10" /><rect stroke="#9A8484" x="227" y="420" width="9" height="11" /><rect stroke="none" fill="#DDF4F5" x="227" y="466" width="9" height="10" /><rect stroke="#9A8484" x="227" y="466" width="9" height="11" /><rect stroke="none" fill="#DDF4F5" x="227" y="501" width="9" height="10" /><rect stroke="#9A8484" x="227" y="501" width="9" height="11" /><rect stroke="none" fill="#DDF4F5" x="227" y="536" width="9" height="10" /><rect stroke="#9A8484" x="227" y="536" width="9" height="11" /><rect stroke="none" fill="#DDF4F5" x="217" y="608" width="9" height="10" /><rect stroke="#9A8484" x="217" y="608" width="9" height="11" /><rect stroke="none" fill="#DDF4F5" x="217" y="671" width="9" height="10" /><rect stroke="#9A8484" x="217" y="671" width="9" height="11" /><rect fill="#D0D0D0" stroke="none" x="455" y="53" width="90" height="50" /><rect stroke="none" fill="#DDF4F5" x="452" y="50" width="89" height="49" /><rect stroke="#9A8484" x="452" y="50" width="89" height="50" /><rect stroke="#9A8484" x="452" y="50" width="89" height="49" /><text transform="matrix(1 0 0 1 472 53)" fill="#595959" stroke="none"><tspan dx="0 " x="0" y="9">receiver app</tspan></text><path stroke="#9A8484" stroke-dasharray="7,4" d="M497 100L497 723" /><path stroke="#A3A3A3" stroke-width="2" d="M28 708H629m0 0V370" /><path stroke="#9A8484" d="M25 367V707m0 0H628m0 0V367m0 0H25" /><path stroke="#9A8484" fill="#F1FAED" d="M25 367v20H44L57 373v-6H25" /><path stroke="#9A8484" d="M25 367v20H44L57 373v-6H25 Z" /><text transform="matrix(1 0 0 1 30 370)" fill="#595959" font-weight="bold" stroke="none"><tspan dx="0 " x="0" y="9">alt </tspan></text><path stroke="#9A8484" stroke-dasharray="3,4" d="M25 633L628 633" /><text transform="matrix(1 0 0 1 30 390)" fill="#595959" stroke="none"><tspan dx="0 " x="0" y="9">[</tspan><tspan dx="0 " x="3" y="9">C</tspan><tspan dx="0 " x="8" y="9">o</tspan><tspan dx="0 " x="13" y="9">n</tspan><tspan dx="0 " x="18.33333" y="9">n</tspan><tspan dx="0 " x="23.66666" y="9">e</tspan><tspan dx="0 " x="28.66666" y="9">c</tspan><tspan dx="0 0 " x="33" y="9">ti</tspan><tspan dx="0 " x="38.66666" y="9">o</tspan><tspan dx="0 " x="44" y="9">n</tspan><tspan dx="0 " x="49.33333" y="9"> </tspan><tspan dx="0 " x="51.66666" y="9">e</tspan><tspan dx="0 " x="56.66666" y="9">s</tspan><tspan dx="0 " x="60.33333" y="9">t</tspan><tspan dx="0 " x="63.66666" y="9">a</tspan><tspan dx="0 " x="68.66666" y="9">b</tspan><tspan dx="0 " x="73.99999" y="9">l</tspan><tspan dx="0 " x="76.33333" y="9">i</tspan><tspan dx="0 " x="78.66666" y="9">s</tspan><tspan dx="0 " x="82.33333" y="9">h</tspan><tspan dx="0 " x="87.66666" y="9">e</tspan><tspan dx="0 " x="92.66666" y="9">d</tspan><tspan dx="0 " x="98" y="9">]</tspan></text><text transform="matrix(1 0 0 1 30 638)" fill="#595959" stroke="none"><tspan dx="0 " x="0" y="9">[</tspan><tspan dx="0 " x="3" y="9">C</tspan><tspan dx="0 " x="8" y="9">o</tspan><tspan dx="0 " x="13" y="9">n</tspan><tspan dx="0 " x="18" y="9">n</tspan><tspan dx="0 " x="23" y="9">e</tspan><tspan dx="0 " x="28" y="9">c</tspan><tspan dx="0 0 " x="32.33333" y="9">ti</tspan><tspan dx="0 " x="38" y="9">o</tspan><tspan dx="0 " x="43.33333" y="9">n</tspan><tspan dx="0 " x="48.66666" y="9"> </tspan><tspan dx="0 " x="51" y="9">f</tspan><tspan dx="0 " x="54" y="9">a</tspan><tspan dx="0 " x="59" y="9">i</tspan><tspan dx="0 " x="61.33333" y="9">l</tspan><tspan dx="0 " x="63.66666" y="9">d</tspan><tspan dx="0 " x="68.99999" y="9">]</tspan></text></g><g transform="matrix(0.95909 0 0 0.957826 0 0)" font-family="CalibriUnicode" font-size="13"><text transform="matrix(1 0 0 -1 0 0)" fill="#000000" stroke="none"><tspan dx="0 " x="235" y="568">WESTON_TRANSMITTER_CONNECTION_READY</tspan></text></g><g transform="matrix(0.95909 0 0 -0.957826 0 0)" font-family="CalibriUnicode" font-size="10"><path stroke="#69738C" d="M212 129h40m0 0v15m0 0H217" /><path stroke="#69738C" fill="#69738C" d="M229 140v4v4l-12 -4l12 -4" /><path stroke="#69738C" d="M217 164h40m0 0v15m0 0H222" /><path stroke="#69738C" fill="#69738C" d="M234 175v4v4l-12 -4l12 -4" /><path stroke="#69738C" d="M217 199h40m0 0v15m0 0H222" /><path stroke="#69738C" fill="#69738C" d="M234 210v4v4l-12 -4l12 -4" /><path d="M222 234h40m0 0v15m0 0H227" /><path fill="#69738C" d="M239 245v4v4l-12 -4l12 -4" /><path stroke="#69738C" d="M227 278h40m0 0v15m0 0H232" /><path stroke="#69738C" fill="#69738C" d="M244 289v4v4l-12 -4l12 -4" /><path stroke="#69738C" d="M232 313h40m0 0v15m0 0H237" /><path stroke="#69738C" fill="#69738C" d="M249 324v4v4l-12 -4l12 -4" /><path stroke="#69738C" d="M232 405h40m0 0v15m0 0H237" /><path stroke="#69738C" fill="#69738C" d="M249 416v4v4l-12 -4l12 -4" /><path stroke="#69738C" d="M232 451h40m0 0v15m0 0H237" /><path stroke="#69738C" fill="#69738C" d="M249 462v4v4l-12 -4l12 -4" /><path stroke="#69738C" d="M232 486h40m0 0v15m0 0H237" /><path stroke="#69738C" fill="#69738C" d="M249 497v4v4l-12 -4l12 -4" /><path stroke="#69738C" d="M232 521h40m0 0v15m0 0H237" /><path stroke="#69738C" fill="#69738C" d="M249 532v4v4l-12 -4l12 -4" /><path stroke="#69738C" d="M222 593h40m0 0v15m0 0H227" /><path stroke="#69738C" fill="#69738C" d="M239 604v4v4l-12 -4l12 -4" /><path d="M222 656h40m0 0v15m0 0H227" /><path fill="#69738C" d="M239 667v4v4l-12 -4l12 -4" /><g transform="matrix(1 0 0 -1 261 201)"><rect fill="#FFFFFF" stroke="none" x="0" width="139" y="-13" height="13" /></g><text transform="matrix(1 0 0 1 261 201)" fill="#595959" stroke="none"><tspan dx="0 " x="0" y="9">t</tspan><tspan dx="0 " x="3.333333" y="9">r</tspan><tspan dx="0 " x="6.666666" y="9">a</tspan><tspan dx="0 " x="12" y="9">n</tspan><tspan dx="0 " x="17.33333" y="9">s</tspan><tspan dx="0 " x="21" y="9">m</tspan><tspan dx="0 " x="29" y="9">i</tspan><tspan dx="0 0 " x="31.33333" y="9">tt</tspan><tspan dx="0 " x="38" y="9">e</tspan><tspan dx="0 " x="43" y="9">r</tspan><tspan dx="0 " x="46.33333" y="9">_</tspan><tspan dx="0 " x="51.33333" y="9">c</tspan><tspan dx="0 " x="55.66666" y="9">o</tspan><tspan dx="0 " x="61" y="9">n</tspan><tspan dx="0 " x="66.33333" y="9">n</tspan><tspan dx="0 " x="71.66666" y="9">e</tspan><tspan dx="0 " x="76.66666" y="9">c</tspan><tspan dx="0 " x="81" y="9">t</tspan><tspan dx="0 " x="84.33334" y="9">_</tspan><tspan dx="0 " x="89.33334" y="9">t</tspan><tspan dx="0 " x="92.66667" y="9">o</tspan><tspan dx="0 " x="98.00001" y="9">_</tspan><tspan dx="0 " x="103" y="9">r</tspan><tspan dx="0 " x="106.3333" y="9">e</tspan><tspan dx="0 " x="111.3333" y="9">m</tspan><tspan dx="0 " x="119.3333" y="9">o</tspan><tspan dx="0 " x="124.6667" y="9">t</tspan><tspan dx="0 " x="128" y="9">e</tspan><tspan dx="0 " x="133" y="9">(</tspan><tspan dx="0 " x="136" y="9">)</tspan></text><g transform="matrix(1 0 0 -1 276 523)"><rect fill="#FFFFFF" stroke="none" x="0" width="117" y="-13" height="13" /></g><text transform="matrix(1 0 0 1 276 523)" fill="#595959" stroke="none"><tspan dx="0 " x="0" y="9">wthp_registry_set_listener()</tspan></text><g transform="matrix(1 0 0 -1 261 166)"><rect fill="#FFFFFF" stroke="none" x="0" width="132" y="-13" height="13" /></g><text transform="matrix(1 0 0 1 261 166)" fill="#595959" stroke="none"><tspan dx="0 " x="0" y="9">t</tspan><tspan dx="0 " x="3.333333" y="9">r</tspan><tspan dx="0 " x="6.666666" y="9">a</tspan><tspan dx="0 " x="12" y="9">n</tspan><tspan dx="0 " x="17.66667" y="9">s</tspan><tspan dx="0 " x="21.33333" y="9">m</tspan><tspan dx="0 " x="29.66666" y="9">i</tspan><tspan dx="0 0 " x="32" y="9">tt</tspan><tspan dx="0 " x="38.66666" y="9">e</tspan><tspan dx="0 " x="44" y="9">r</tspan><tspan dx="0 " x="47.33333" y="9">_</tspan><tspan dx="0 " x="52.33333" y="9">g</tspan><tspan dx="0 " x="57.33333" y="9">e</tspan><tspan dx="0 " x="62.33333" y="9">t</tspan><tspan dx="0 " x="65.66666" y="9">_</tspan><tspan dx="0 " x="70.66666" y="9">s</tspan><tspan dx="0 " x="74.33333" y="9">e</tspan><tspan dx="0 " x="79.33333" y="9">r</tspan><tspan dx="0 " x="82.66666" y="9">v</tspan><tspan dx="0 " x="87.33333" y="9">e</tspan><tspan dx="0 " x="92.33333" y="9">r</tspan><tspan dx="0 " x="95.66666" y="9">_</tspan><tspan dx="0 " x="100.6667" y="9">c</tspan><tspan dx="0 " x="105" y="9">o</tspan><tspan dx="0 " x="110.3333" y="9">n</tspan><tspan dx="0 0 " x="115.6667" y="9">fi</tspan><tspan dx="0 " x="121" y="9">g</tspan><tspan dx="0 " x="126" y="9">(</tspan><tspan dx="0 " x="129" y="9">)</tspan></text><g transform="matrix(1 0 0 -1 266 236)"><rect fill="#FFFFFF" stroke="none" x="0" width="106" y="-13" height="13" /></g><text transform="matrix(1 0 0 1 266 236)" fill="#595959" stroke="none"><tspan dx="0 " x="0" y="9">e</tspan><tspan dx="0 " x="5.333333" y="9">s</tspan><tspan dx="0 " x="9" y="9">t</tspan><tspan dx="0 " x="12.33333" y="9">a</tspan><tspan dx="0 " x="17.33333" y="9">b</tspan><tspan dx="0 " x="22.66666" y="9">l</tspan><tspan dx="0 " x="25" y="9">i</tspan><tspan dx="0 " x="27.33333" y="9">s</tspan><tspan dx="0 " x="31" y="9">h</tspan><tspan dx="0 " x="36.33333" y="9">_</tspan><tspan dx="0 0 " x="41.33333" y="9">ti</tspan><tspan dx="0 " x="47" y="9">m</tspan><tspan dx="0 " x="55" y="9">e</tspan><tspan dx="0 " x="60" y="9">r</tspan><tspan dx="0 " x="63.33333" y="9">_</tspan><tspan dx="0 " x="68.33333" y="9">h</tspan><tspan dx="0 " x="73.66666" y="9">a</tspan><tspan dx="0 " x="78.66666" y="9">n</tspan><tspan dx="0 " x="84" y="9">d</tspan><tspan dx="0 " x="89.33334" y="9">l</tspan><tspan dx="0 " x="91.66667" y="9">e</tspan><tspan dx="0 " x="96.66667" y="9">r</tspan><tspan dx="0 " x="100" y="9">(</tspan><tspan dx="0 " x="103" y="9">)</tspan></text><g transform="matrix(1 0 0 -1 271 280)"><rect fill="#FFFFFF" stroke="none" x="0" width="88" y="-13" height="13" /></g><text transform="matrix(1 0 0 1 271 280)" fill="#595959" stroke="none"><tspan dx="0 " x="0" y="9">waltham_client_init()</tspan></text><g transform="matrix(1 0 0 -1 276 315)"><rect fill="#FFFFFF" stroke="none" x="0" width="104" y="-13" height="13" /></g><text transform="matrix(1 0 0 1 276 315)" fill="#595959" stroke="none"><tspan dx="0 " x="0" y="9">wth_connect_to_server()</tspan></text><g transform="matrix(1 0 0 -1 276 488)"><rect fill="#FFFFFF" stroke="none" x="0" width="112" y="-13" height="13" /></g><text transform="matrix(1 0 0 1 276 488)" fill="#595959" stroke="none"><tspan dx="0 " x="0" y="9">wth_display_get_registry()</tspan></text><g transform="matrix(1 0 0 -1 276 453)"><rect fill="#FFFFFF" stroke="none" x="0" width="125" y="-13" height="13" /></g><text transform="matrix(1 0 0 1 276 453)" fill="#595959" stroke="none"><tspan dx="0 " x="0" y="9">w</tspan><tspan dx="0 " x="7.333333" y="9">t</tspan><tspan dx="0 " x="10.66667" y="9">h</tspan><tspan dx="0 " x="16" y="9">_</tspan><tspan dx="0 " x="21" y="9">c</tspan><tspan dx="0 " x="25.33333" y="9">o</tspan><tspan dx="0 " x="30.66666" y="9">n</tspan><tspan dx="0 " x="36" y="9">n</tspan><tspan dx="0 " x="41.33333" y="9">e</tspan><tspan dx="0 " x="46.33333" y="9">c</tspan><tspan dx="0 0 " x="50.66666" y="9">ti</tspan><tspan dx="0 " x="56.33333" y="9">o</tspan><tspan dx="0 " x="61.66666" y="9">n</tspan><tspan dx="0 " x="66.99999" y="9">_</tspan><tspan dx="0 " x="71.99999" y="9">g</tspan><tspan dx="0 " x="76.99999" y="9">e</tspan><tspan dx="0 " x="81.99999" y="9">t</tspan><tspan dx="0 " x="85.33333" y="9">_</tspan><tspan dx="0 " x="90.33333" y="9">d</tspan><tspan dx="0 " x="95.66666" y="9">i</tspan><tspan dx="0 " x="98" y="9">s</tspan><tspan dx="0 " x="101.6667" y="9">p</tspan><tspan dx="0 " x="107" y="9">l</tspan><tspan dx="0 " x="109.3333" y="9">a</tspan><tspan dx="0 " x="114.3333" y="9">y</tspan><tspan dx="0 " x="119" y="9">(</tspan><tspan dx="0 " x="122" y="9">)</tspan></text><g transform="matrix(1 0 0 -1 276 407)"><rect fill="#FFFFFF" stroke="none" x="0" width="104" y="-13" height="13" /></g><text transform="matrix(1 0 0 1 276 407)" fill="#595959" stroke="none"><tspan dx="0 " x="0" y="9">w</tspan><tspan dx="0 " x="7" y="9">t</tspan><tspan dx="0 " x="10.33333" y="9">h</tspan><tspan dx="0 " x="15.33333" y="9">_</tspan><tspan dx="0 " x="20.33333" y="9">c</tspan><tspan dx="0 " x="24.66666" y="9">o</tspan><tspan dx="0 " x="30" y="9">n</tspan><tspan dx="0 " x="35.33333" y="9">n</tspan><tspan dx="0 " x="40.66666" y="9">e</tspan><tspan dx="0 " x="45.66666" y="9">c</tspan><tspan dx="0 0 " x="49.99999" y="9">ti</tspan><tspan dx="0 " x="55.66666" y="9">o</tspan><tspan dx="0 " x="60.99999" y="9">n</tspan><tspan dx="0 " x="66.33333" y="9">_</tspan><tspan dx="0 " x="71.33333" y="9">g</tspan><tspan dx="0 " x="76.33333" y="9">e</tspan><tspan dx="0 " x="81.33333" y="9">t</tspan><tspan dx="0 " x="84.66666" y="9">_</tspan><tspan dx="0 " x="89.66666" y="9">f</tspan><tspan dx="0 " x="92.66666" y="9">d</tspan><tspan dx="0 " x="98" y="9">(</tspan><tspan dx="0 " x="101" y="9">)</tspan></text><g transform="matrix(1 0 0 -1 266 658)"><rect fill="#FFFFFF" stroke="none" x="0" width="139" y="-13" height="13" /></g><text transform="matrix(1 0 0 1 266 658)" fill="#595959" stroke="none"><tspan dx="0 " x="0" y="9">w</tspan><tspan dx="0 " x="7.666667" y="9">l</tspan><tspan dx="0 " x="10" y="9">_</tspan><tspan dx="0 " x="15.33333" y="9">e</tspan><tspan dx="0 " x="20.66667" y="9">v</tspan><tspan dx="0 " x="25.66667" y="9">e</tspan><tspan dx="0 " x="31" y="9">n</tspan><tspan dx="0 " x="36.33333" y="9">t</tspan><tspan dx="0 " x="39.66666" y="9">_</tspan><tspan dx="0 " x="44.66666" y="9">s</tspan><tspan dx="0 " x="48.33333" y="9">o</tspan><tspan dx="0 " x="53.66666" y="9">u</tspan><tspan dx="0 " x="59" y="9">r</tspan><tspan dx="0 " x="62.33333" y="9">c</tspan><tspan dx="0 " x="66.66666" y="9">e</tspan><tspan dx="0 " x="71.66666" y="9">_</tspan><tspan dx="0 0 " x="76.66666" y="9">ti</tspan><tspan dx="0 " x="82.33333" y="9">m</tspan><tspan dx="0 " x="90.33333" y="9">e</tspan><tspan dx="0 " x="95.33333" y="9">r</tspan><tspan dx="0 " x="98.66666" y="9">_</tspan><tspan dx="0 " x="103.6667" y="9">u</tspan><tspan dx="0 " x="109" y="9">p</tspan><tspan dx="0 " x="114.3333" y="9">d</tspan><tspan dx="0 " x="119.6667" y="9">a</tspan><tspan dx="0 " x="124.6667" y="9">t</tspan><tspan dx="0 " x="128" y="9">e</tspan><tspan dx="0 " x="133" y="9">(</tspan><tspan dx="0 " x="136" y="9">)</tspan></text><g transform="matrix(1 0 0 -1 256 131)"><rect fill="#FFFFFF" stroke="none" x="0" width="76" y="-13" height="13" /></g><text transform="matrix(1 0 0 1 256 131)" fill="#595959" stroke="none"><tspan dx="0 " x="0" y="9">wet_module_init()</tspan></text><g transform="matrix(1 0 0 -1 266 595)"><rect fill="#FFFFFF" stroke="none" x="0" width="69" y="-13" height="13" /></g><text transform="matrix(1 0 0 1 266 595)" fill="#595959" stroke="none"><tspan dx="0 " x="0" y="9">wl_signal_emit()</tspan></text></g></g></g></g></svg>