<?xml version="1.0" encoding="utf-8"?><svg version="1.1" preserveAspectRatio="xMidYMid" xml:space="preserve" width="447.59051pt" height="491.56064pt" viewBox="24.36929 27.71846 447.59051 491.56064" xmlns="http://www.w3.org/2000/svg" xmlns:xlink="http://www.w3.org/1999/xlink"><desc xmlns:eadoc="http://www.siemens.com/eauml/doc"><eadoc:guid>EAID_AE53D872_31CE_43ac_B899_DC57BF13667A</eadoc:guid><eadoc:name>06_Retry_connection</eadoc:name><eadoc:type>Diagram</eadoc:type><eadoc:note></eadoc:note></desc><g transform="matrix(1 0 0 -1 0 768)"><g stroke="#000000" fill="none" fill-rule="evenodd" stroke-width="1" stroke-linecap="round" stroke-linejoin="round" stroke-miterlimit="3" letter-spacing="normal" font-weight="normal" font-style="normal" baseline-shift="0"><g transform="matrix(0.75 0 0 0.75 0 768.200012)"><g transform="matrix(0.95909 0 0 -0.957826 0 0)" font-family="CalibriUnicode" font-size="10"><rect fill="#D0D0D0" stroke="none" x="80" y="53" width="90" height="50" /><rect stroke="none" fill="#DDF4F5" x="77" y="50" width="89" height="49" /><rect stroke="#9A8484" x="77" y="50" width="89" height="50" /><rect stroke="#9A8484" x="77" y="50" width="89" height="49" /><text transform="matrix(1 0 0 1 100 53)" fill="#595959" stroke="none"><tspan dx="0 " x="0" y="9">t</tspan><tspan dx="0 " x="3.333333" y="9">r</tspan><tspan dx="0 " x="6.666666" y="9">a</tspan><tspan dx="0 " x="11.66667" y="9">n</tspan><tspan dx="0 " x="17" y="9">s</tspan><tspan dx="0 " x="20.66667" y="9">m</tspan><tspan dx="0 " x="28.66667" y="9">i</tspan><tspan dx="0 0 " x="31" y="9">tt</tspan><tspan dx="0 " x="37.66667" y="9">e</tspan><tspan dx="0 " x="42.66667" y="9">r</tspan></text><path stroke="#9A8484" stroke-dasharray="7,4" d="M122 100L122 674" /><rect stroke="none" fill="#DDF4F5" x="117" y="170" width="9" height="389" /><rect stroke="#9A8484" x="117" y="170" width="9" height="390" /><rect stroke="none" fill="#DDF4F5" x="122" y="185" width="9" height="10" /><rect stroke="#9A8484" x="122" y="185" width="9" height="11" /><rect stroke="none" fill="#DDF4F5" x="122" y="301" width="9" height="10" /><rect stroke="#9A8484" x="122" y="301" width="9" height="11" /><rect stroke="none" fill="#DDF4F5" x="122" y="353" width="9" height="10" /><rect stroke="#9A8484" x="122" y="353" width="9" height="11" /><rect stroke="none" fill="#DDF4F5" x="122" y="388" width="9" height="10" /><rect stroke="#9A8484" x="122" y="388" width="9" height="11" /><rect stroke="none" fill="#DDF4F5" x="122" y="438" width="9" height="10" /><rect stroke="#9A8484" x="122" y="438" width="9" height="11" /><rect stroke="none" fill="#DDF4F5" x="122" y="488" width="9" height="10" /><rect stroke="#9A8484" x="122" y="488" width="9" height="11" /><rect stroke="none" fill="#DDF4F5" x="122" y="541" width="9" height="10" /><rect stroke="#9A8484" x="122" y="541" width="9" height="11" /><rect fill="#D0D0D0" stroke="none" x="378" y="53" width="90" height="50" /><rect stroke="none" fill="#DDF4F5" x="375" y="50" width="89" height="49" /><rect stroke="#9A8484" x="375" y="50" width="89" height="50" /><rect stroke="#9A8484" x="375" y="50" width="89" height="49" /><text transform="matrix(1 0 0 1 395 53)" fill="#595959" stroke="none"><tspan dx="0 " x="0" y="9">receiver app</tspan></text><path stroke="#9A8484" stroke-dasharray="7,4" d="M420 100L420 674" /><rect stroke="none" fill="#DDF4F5" x="415" y="135" width="9" height="29" /><rect stroke="#9A8484" x="415" y="135" width="9" height="30" /><rect stroke="none" fill="#DDF4F5" x="415" y="608" width="9" height="29" /><rect stroke="#9A8484" x="415" y="608" width="9" height="30" /><rect stroke="none" fill="#DDF4F5" x="420" y="150" width="9" height="10" /><rect stroke="#9A8484" x="420" y="150" width="9" height="11" /><rect stroke="none" fill="#DDF4F5" x="420" y="623" width="9" height="10" /><rect stroke="#9A8484" x="420" y="623" width="9" height="11" /><path stroke="#A3A3A3" stroke-width="2" d="M48 571H645m0 0V513" /><path stroke="#9A8484" d="M45 510v60m0 0H644m0 0V510m0 0H45" /><path stroke="#9A8484" fill="#F1FAED" d="M45 510v20H71L84 516v-6H45" /><path stroke="#9A8484" d="M45 510v20H71L84 516v-6H45 Z" /><text transform="matrix(1 0 0 1 50 513)" fill="#595959" font-weight="bold" stroke="none"><tspan dx="0 " x="0" y="9">loop </tspan></text><path fill="#D0D0D0" stroke="none" d="M62 691C62 668 62 668 92 668H507C537 668 537 668 537 691v-2C537 712 537 712 507 712H92C62 712 62 712 62 689v2" /><path stroke="none" fill="#FBF7DB" d="M59 688C59 665 59 665 89 665H504C534 665 534 665 534 688v-2C534 709 534 709 504 709H89C59 709 59 709 59 686v2" /><path stroke="#9A8484" d="M59 688C59 665 59 665 89 665H504C534 665 534 665 534 688v-2C534 709 534 709 504 709H89C59 709 59 709 59 686v2m0 0C59 665 59 665 89 665H504C534 665 534 665 534 688v-2C534 709 534 709 504 709H89C59 709 59 709 59 686v2" /><text transform="matrix(1 0 0 1 240 673)" fill="#595959" font-weight="bold" stroke="none"><desc xmlns:eadoc="http://www.siemens.com/eauml/doc"><eadoc:guid>EAID_0385487C_EA0D_4226_A0DD_51570F36B490</eadoc:guid><eadoc:name>Refer Establish_connection</eadoc:name><eadoc:type>Activity</eadoc:type><eadoc:note></eadoc:note></desc><tspan dx="0 " x="0" y="9">R</tspan><tspan dx="0 " x="6" y="9">e</tspan><tspan dx="0 " x="11.33333" y="9">f</tspan><tspan dx="0 " x="14.33333" y="9">e</tspan><tspan dx="0 " x="19.66667" y="9">r</tspan><tspan dx="0 " x="23" y="9"> </tspan><tspan dx="0 " x="25.66667" y="9">E</tspan><tspan dx="0 " x="31" y="9">s</tspan><tspan dx="0 " x="34.66667" y="9">t</tspan><tspan dx="0 " x="38" y="9">a</tspan><tspan dx="0 " x="43" y="9">b</tspan><tspan dx="0 " x="48.33333" y="9">l</tspan><tspan dx="0 " x="50.66666" y="9">i</tspan><tspan dx="0 " x="53" y="9">s</tspan><tspan dx="0 " x="56.66666" y="9">h</tspan><tspan dx="0 " x="62" y="9">_</tspan><tspan dx="0 " x="67" y="9">c</tspan><tspan dx="0 " x="71.33334" y="9">o</tspan><tspan dx="0 " x="76.66667" y="9">n</tspan><tspan dx="0 " x="82.00001" y="9">n</tspan><tspan dx="0 " x="87.33334" y="9">e</tspan><tspan dx="0 " x="92.33334" y="9">c</tspan><tspan dx="0 0 " x="96.66668" y="9">ti</tspan><tspan dx="0 " x="102.3333" y="9">o</tspan><tspan dx="0 " x="107.6667" y="9">n</tspan></text><path d="M425 135h40m0 0v15m0 0H430" /><path fill="#69738C" d="M442 146v4v4l-12 -4l12 -4" /><path d="M127 170h40m0 0v15m0 0H132" /><path fill="#69738C" d="M144 181v4v4l-12 -4l12 -4" /><path d="M127 286h40m0 0v15m0 0H132" /><path fill="#69738C" d="M144 297v4v4l-12 -4l12 -4" /><path d="M127 338h40m0 0v15m0 0H132" /><path fill="#69738C" d="M144 349v4v4l-12 -4l12 -4" /><path stroke="#69738C" d="M127 373h40m0 0v15m0 0H132" /><path stroke="#69738C" fill="#69738C" d="M144 384v4v4l-12 -4l12 -4" /><path d="M127 423h40m0 0v15m0 0H132" /><path fill="#69738C" d="M144 434v4v4l-12 -4l12 -4" /><path stroke="#69738C" d="M127 473h40m0 0v15m0 0H132" /><path stroke="#69738C" fill="#69738C" d="M144 484v4v4l-12 -4l12 -4" /><path stroke="#69738C" d="M127 526h40m0 0v15m0 0H132" /><path stroke="#69738C" fill="#69738C" d="M144 537v4v4l-12 -4l12 -4" /><path stroke="#69738C" d="M425 608h40m0 0v15m0 0H430" /><path stroke="#69738C" fill="#69738C" d="M442 619v4v4l-12 -4l12 -4" /><g transform="matrix(1 0 0 -1 469 137)"><rect fill="#FFFFFF" stroke="none" x="0" width="83" y="-13" height="13" /></g><text transform="matrix(1 0 0 1 469 137)" fill="#595959" stroke="none"><tspan dx="0 " x="0" y="9">receiver fails down()</tspan></text><g transform="matrix(1 0 0 -1 171 288)"><rect fill="#FFFFFF" stroke="none" x="0" width="146" y="-13" height="13" /></g><text transform="matrix(1 0 0 1 171 288)" fill="#595959" stroke="none"><tspan dx="0 " x="0" y="9">t</tspan><tspan dx="0 " x="3.333333" y="9">r</tspan><tspan dx="0 " x="6.666666" y="9">a</tspan><tspan dx="0 " x="12" y="9">n</tspan><tspan dx="0 " x="17.66667" y="9">s</tspan><tspan dx="0 " x="21.33333" y="9">m</tspan><tspan dx="0 " x="29.66666" y="9">i</tspan><tspan dx="0 0 " x="32" y="9">tt</tspan><tspan dx="0 " x="38.66666" y="9">e</tspan><tspan dx="0 " x="44" y="9">r</tspan><tspan dx="0 " x="47.33333" y="9">_</tspan><tspan dx="0 " x="52.66666" y="9">s</tspan><tspan dx="0 " x="56.33333" y="9">u</tspan><tspan dx="0 " x="62" y="9">r</tspan><tspan dx="0 " x="65.33333" y="9">f</tspan><tspan dx="0 " x="68.33333" y="9">a</tspan><tspan dx="0 " x="73.33333" y="9">c</tspan><tspan dx="0 " x="77.66666" y="9">e</tspan><tspan dx="0 " x="82.66666" y="9">_</tspan><tspan dx="0 " x="87.66666" y="9">g</tspan><tspan dx="0 " x="92.66666" y="9">a</tspan><tspan dx="0 " x="97.66666" y="9">t</tspan><tspan dx="0 " x="101" y="9">h</tspan><tspan dx="0 " x="106.3333" y="9">e</tspan><tspan dx="0 " x="111.3333" y="9">r</tspan><tspan dx="0 " x="114.6667" y="9">_</tspan><tspan dx="0 " x="119.6667" y="9">s</tspan><tspan dx="0 " x="123.3333" y="9">t</tspan><tspan dx="0 " x="126.6667" y="9">a</tspan><tspan dx="0 " x="131.6667" y="9">t</tspan><tspan dx="0 " x="135" y="9">e</tspan><tspan dx="0 " x="140" y="9">(</tspan><tspan dx="0 " x="143" y="9">)</tspan></text><g transform="matrix(1 0 0 -1 171 528)"><rect fill="#FFFFFF" stroke="none" x="0" width="106" y="-13" height="13" /></g><text transform="matrix(1 0 0 1 171 528)" fill="#595959" stroke="none"><tspan dx="0 " x="0" y="9">e</tspan><tspan dx="0 " x="5.333333" y="9">s</tspan><tspan dx="0 " x="9" y="9">t</tspan><tspan dx="0 " x="12.33333" y="9">a</tspan><tspan dx="0 " x="17.33333" y="9">b</tspan><tspan dx="0 " x="22.66666" y="9">l</tspan><tspan dx="0 " x="25" y="9">i</tspan><tspan dx="0 " x="27.33333" y="9">s</tspan><tspan dx="0 " x="31" y="9">h</tspan><tspan dx="0 " x="36.33333" y="9">_</tspan><tspan dx="0 0 " x="41.33333" y="9">ti</tspan><tspan dx="0 " x="47" y="9">m</tspan><tspan dx="0 " x="55" y="9">e</tspan><tspan dx="0 " x="60" y="9">r</tspan><tspan dx="0 " x="63.33333" y="9">_</tspan><tspan dx="0 " x="68.33333" y="9">h</tspan><tspan dx="0 " x="73.66666" y="9">a</tspan><tspan dx="0 " x="78.66666" y="9">n</tspan><tspan dx="0 " x="84" y="9">d</tspan><tspan dx="0 " x="89.33334" y="9">l</tspan><tspan dx="0 " x="91.66667" y="9">e</tspan><tspan dx="0 " x="96.66667" y="9">r</tspan><tspan dx="0 " x="100" y="9">(</tspan><tspan dx="0 " x="103" y="9">)</tspan></text><g transform="matrix(1 0 0 -1 171 172)"><rect fill="#FFFFFF" stroke="none" x="0" width="108" y="-13" height="13" /></g><text transform="matrix(1 0 0 1 171 172)" fill="#595959" stroke="none"><tspan dx="0 " x="0" y="9">c</tspan><tspan dx="0 " x="4.333333" y="9">o</tspan><tspan dx="0 " x="9.333333" y="9">n</tspan><tspan dx="0 " x="14.33333" y="9">n</tspan><tspan dx="0 " x="19.33333" y="9">e</tspan><tspan dx="0 " x="24.33333" y="9">c</tspan><tspan dx="0 0 " x="28.66666" y="9">ti</tspan><tspan dx="0 " x="34.33333" y="9">o</tspan><tspan dx="0 " x="39.66666" y="9">n</tspan><tspan dx="0 " x="45" y="9">_</tspan><tspan dx="0 " x="50" y="9">h</tspan><tspan dx="0 " x="55.33333" y="9">a</tspan><tspan dx="0 " x="60.33333" y="9">n</tspan><tspan dx="0 " x="65.66666" y="9">d</tspan><tspan dx="0 " x="71" y="9">l</tspan><tspan dx="0 " x="73.33334" y="9">e</tspan><tspan dx="0 " x="78.33334" y="9">_</tspan><tspan dx="0 " x="83.33334" y="9">d</tspan><tspan dx="0 " x="88.66667" y="9">a</tspan><tspan dx="0 " x="93.66667" y="9">t</tspan><tspan dx="0 " x="97.00001" y="9">a</tspan><tspan dx="0 " x="102" y="9">(</tspan><tspan dx="0 " x="105" y="9">)</tspan></text><g transform="matrix(1 0 0 -1 171 375)"><rect fill="#FFFFFF" stroke="none" x="0" width="53" y="-13" height="13" /></g><text transform="matrix(1 0 0 1 171 375)" fill="#595959" stroke="none"><tspan dx="0 " x="0" y="9">init_globals()</tspan></text><g transform="matrix(1 0 0 -1 469 610)"><rect fill="#FFFFFF" stroke="none" x="0" width="73" y="-13" height="13" /></g><text transform="matrix(1 0 0 1 469 610)" fill="#595959" stroke="none"><tspan dx="0 " x="0" y="9">receiver restarts()</tspan></text><g transform="matrix(1 0 0 -1 171 475)"><rect fill="#FFFFFF" stroke="none" x="0" width="106" y="-13" height="13" /></g><text transform="matrix(1 0 0 1 171 475)" fill="#595959" stroke="none"><tspan dx="0 " x="0" y="9">w</tspan><tspan dx="0 " x="7.666667" y="9">l</tspan><tspan dx="0 " x="10" y="9">_</tspan><tspan dx="0 " x="15.33333" y="9">e</tspan><tspan dx="0 " x="20.33333" y="9">v</tspan><tspan dx="0 " x="25" y="9">e</tspan><tspan dx="0 " x="30" y="9">n</tspan><tspan dx="0 " x="35.33333" y="9">t</tspan><tspan dx="0 " x="38.66666" y="9">_</tspan><tspan dx="0 0 " x="43.66666" y="9">ti</tspan><tspan dx="0 " x="49.33333" y="9">m</tspan><tspan dx="0 " x="57.33333" y="9">e</tspan><tspan dx="0 " x="62.33333" y="9">r</tspan><tspan dx="0 " x="65.66666" y="9">_</tspan><tspan dx="0 " x="70.66666" y="9">u</tspan><tspan dx="0 " x="76" y="9">p</tspan><tspan dx="0 " x="81.33334" y="9">d</tspan><tspan dx="0 " x="86.66667" y="9">a</tspan><tspan dx="0 " x="91.66667" y="9">t</tspan><tspan dx="0 " x="95.00001" y="9">e</tspan><tspan dx="0 " x="100" y="9">(</tspan><tspan dx="0 " x="103" y="9">)</tspan></text><g transform="matrix(1 0 0 -1 171 425)"><rect fill="#FFFFFF" stroke="none" x="0" width="85" y="-13" height="13" /></g><text transform="matrix(1 0 0 1 171 425)" fill="#595959" stroke="none"><tspan dx="0 " x="0" y="9">disconnect_surface()</tspan></text><g transform="matrix(1 0 0 -1 171 340)"><rect fill="#FFFFFF" stroke="none" x="0" width="139" y="-13" height="13" /></g><text transform="matrix(1 0 0 1 171 340)" fill="#595959" stroke="none"><tspan dx="0 " x="0" y="9">registry_handle_global_remove()</tspan></text></g></g></g></g></svg>