<?xml version="1.0" encoding="utf-8"?><svg version="1.1" preserveAspectRatio="xMidYMid" xml:space="preserve" width="650.1661399999999pt" height="312.012717pt" viewBox="27.95046 0.6901829999999993 650.1661399999999 312.012717" xmlns="http://www.w3.org/2000/svg" xmlns:xlink="http://www.w3.org/1999/xlink"><desc xmlns:eadoc="http://www.siemens.com/eauml/doc"><eadoc:guid>EAID_3ADE60BF_BDFC_4436_A7A3_CF6CD014C304</eadoc:guid><eadoc:name>Waltham_Integration_Possibility-02</eadoc:name><eadoc:type>Diagram</eadoc:type><eadoc:note></eadoc:note></desc><g transform="matrix(1 0 0 -1 0 841)"><g stroke="#000000" fill="none" fill-rule="evenodd" stroke-width="1" stroke-linecap="round" stroke-linejoin="round" stroke-miterlimit="3" letter-spacing="normal" font-weight="normal" font-style="normal" baseline-shift="0"><g transform="matrix(0.75 0 0 0.75 0 841.650024)"><g transform="matrix(0.958679 0 0 -0.95797 0 0)" font-family="CalibriUnicode" font-size="10"><rect fill="#D0D0D0" stroke="none" x="439" y="16" width="493" height="408" /><rect fill="#D3D3D3" stroke="none" x="436" y="13" width="493" height="408" /><rect stroke="#D3D3D3" x="436" y="13" width="492" height="407" /><text transform="matrix(1 0 0 1 661 17)" fill="#595959" stroke="none"><tspan dx="0 " x="0" y="9">OS2/ECU2</tspan></text><rect fill="#D0D0D0" stroke="none" x="53" y="17" width="375" height="408" /><rect fill="#D3D3D3" stroke="none" x="50" y="14" width="375" height="408" /><rect stroke="#D3D3D3" x="50" y="14" width="374" height="407" /><text transform="matrix(1 0 0 1 216 18)" fill="#595959" stroke="none"><tspan dx="0 " x="0" y="9">OS1/ECU1</tspan></text><rect fill="#D0D0D0" stroke="none" x="487" y="326" width="116" height="50" /><rect stroke="none" fill="#FFB6C1" x="484" y="323" width="115" height="49" /><rect stroke="#9A8484" x="484" y="323" width="115" height="50" /><rect stroke="#9A8484" x="484" y="323" width="115" height="49" /><text transform="matrix(1 0 0 1 507 332)" fill="#595959" font-weight="bold" stroke="none"><desc xmlns:eadoc="http://www.siemens.com/eauml/doc"><eadoc:guid>EAID_B7C3AFEC_6BB7_4c42_A891_DA992A0CC8FB</eadoc:guid><eadoc:name>Waltham Server</eadoc:name><eadoc:type>Object</eadoc:type><eadoc:note></eadoc:note></desc><tspan dx="0 " x="0" y="9">Waltham Server</tspan></text><path stroke="#595959" d="M507 344h70" /><rect fill="#D0D0D0" stroke="none" x="782" y="326" width="116" height="50" /><rect stroke="none" fill="#DDF4F5" x="779" y="323" width="115" height="49" /><rect stroke="#9A8484" x="779" y="323" width="115" height="50" /><rect stroke="#9A8484" x="779" y="323" width="115" height="49" /><text transform="matrix(1 0 0 1 802 332)" fill="#595959" font-weight="bold" stroke="none"><desc xmlns:eadoc="http://www.siemens.com/eauml/doc"><eadoc:guid>EAID_343242B5_1F98_4d13_B557_570D5B737DAB</eadoc:guid><eadoc:name>Wayland Server</eadoc:name><eadoc:type>Object</eadoc:type><eadoc:note></eadoc:note></desc><tspan dx="0 " x="0" y="9">Wayland Server</tspan></text><path stroke="#595959" d="M802 344h69" /><rect fill="#D0D0D0" stroke="none" x="467" y="57" width="261" height="52" /><rect stroke="none" fill="#FFB6C1" x="464" y="54" width="260" height="51" /><rect stroke="#9A8484" x="464" y="54" width="260" height="52" /><rect stroke="#9A8484" x="464" y="54" width="260" height="51" /><text transform="matrix(1 0 0 1 531 63)" fill="#595959" font-weight="bold" stroke="none"><desc xmlns:eadoc="http://www.siemens.com/eauml/doc"><eadoc:guid>EAID_C9B26702_F2A6_41d2_814C_CACE8279AB77</eadoc:guid><eadoc:name>Waltham Receiver Application</eadoc:name><eadoc:type>Object</eadoc:type><eadoc:note></eadoc:note></desc><tspan dx="0 " x="0" y="9">W</tspan><tspan dx="0 " x="9.333333" y="9">a</tspan><tspan dx="0 " x="14.66667" y="9">l</tspan><tspan dx="0 " x="17" y="9">t</tspan><tspan dx="0 " x="20.33333" y="9">h</tspan><tspan dx="0 " x="26" y="9">a</tspan><tspan dx="0 " x="31.33333" y="9">m</tspan><tspan dx="0 " x="39.33333" y="9"> </tspan><tspan dx="0 " x="41.33333" y="9">R</tspan><tspan dx="0 " x="47" y="9">e</tspan><tspan dx="0 " x="52" y="9">c</tspan><tspan dx="0 " x="56.33333" y="9">e</tspan><tspan dx="0 " x="61.33333" y="9">i</tspan><tspan dx="0 " x="63.66666" y="9">v</tspan><tspan dx="0 " x="68.66666" y="9">e</tspan><tspan dx="0 " x="73.66666" y="9">r</tspan><tspan dx="0 " x="77" y="9"> </tspan><tspan dx="0 " x="79" y="9">A</tspan><tspan dx="0 " x="85" y="9">p</tspan><tspan dx="0 " x="90.33334" y="9">p</tspan><tspan dx="0 " x="95.66667" y="9">l</tspan><tspan dx="0 " x="98.00001" y="9">i</tspan><tspan dx="0 " x="100.3333" y="9">c</tspan><tspan dx="0 " x="104.6667" y="9">a</tspan><tspan dx="0 0 " x="109.6667" y="9">ti</tspan><tspan dx="0 " x="115.3333" y="9">o</tspan><tspan dx="0 " x="120.6667" y="9">n</tspan></text><path stroke="#595959" d="M531 75H657" /><rect fill="#D0D0D0" stroke="none" x="782" y="57" width="116" height="50" /><rect stroke="none" fill="#DDF4F5" x="779" y="54" width="115" height="49" /><rect stroke="#9A8484" x="779" y="54" width="115" height="50" /><rect stroke="#9A8484" x="779" y="54" width="115" height="49" /><text transform="matrix(1 0 0 1 813 63)" fill="#595959" font-weight="bold" stroke="none"><desc xmlns:eadoc="http://www.siemens.com/eauml/doc"><eadoc:guid>EAID_21E56C0D_6AC1_45fc_8EB1_C490A1B6D3F1</eadoc:guid><eadoc:name>Compositor</eadoc:name><eadoc:type>Object</eadoc:type><eadoc:note></eadoc:note></desc><tspan dx="0 " x="0" y="9">Compositor</tspan></text><path stroke="#595959" d="M813 75h48" /><rect fill="#FCF2E3" stroke="none" x="424" y="13" width="15" height="410" /><rect x="424" y="13" width="15" height="411" /></g><g transform="matrix(0.958679 0 0 0.95797 0 0)" font-family="CalibriUnicode" font-size="16"><text transform="matrix(1 0 0 -1 0 0)" fill="#000000" stroke="none"><tspan dx="0 " x="429" y="34">h</tspan></text><text transform="matrix(1 0 0 -1 0 0)" fill="#000000" stroke="none"><tspan dx="0 " x="429" y="53">y</tspan></text><text transform="matrix(1 0 0 -1 0 0)" fill="#000000" stroke="none"><tspan dx="0 " x="429" y="72">p</tspan></text><text transform="matrix(1 0 0 -1 0 0)" fill="#000000" stroke="none"><tspan dx="0 " x="429" y="91">e</tspan></text><text transform="matrix(1 0 0 -1 0 0)" fill="#000000" stroke="none"><tspan dx="0 " x="429" y="110">r</tspan></text><text transform="matrix(1 0 0 -1 0 0)" fill="#000000" stroke="none"><tspan dx="0 " x="429" y="129">vi</tspan></text><text transform="matrix(1 0 0 -1 0 0)" fill="#000000" stroke="none"><tspan dx="0 " x="429" y="148">s</tspan></text><text transform="matrix(1 0 0 -1 0 0)" fill="#000000" stroke="none"><tspan dx="0 " x="429" y="167">o</tspan></text><text transform="matrix(1 0 0 -1 0 0)" fill="#000000" stroke="none"><tspan dx="0 " x="429" y="186">r</tspan></text></g><g transform="matrix(0.958679 0 0 -0.95797 0 0)" font-family="CalibriUnicode" font-size="10"><rect fill="#D0D0D0" stroke="none" x="634" y="326" width="90" height="50" /><rect stroke="none" fill="#DDF4F5" x="631" y="323" width="89" height="49" /><rect stroke="#9A8484" x="631" y="323" width="89" height="50" /><rect stroke="#9A8484" x="631" y="323" width="89" height="49" /><text transform="matrix(1 0 0 1 644 332)" fill="#595959" font-weight="bold" stroke="none"><desc xmlns:eadoc="http://www.siemens.com/eauml/doc"><eadoc:guid>EAID_18CD5D21_0EBC_49b4_9330_49DAFC617A60</eadoc:guid><eadoc:name>Wayland Client</eadoc:name><eadoc:type>Object</eadoc:type><eadoc:note></eadoc:note></desc><tspan dx="0 " x="0" y="9">Wayland Client</tspan></text><path stroke="#595959" d="M644 344h63" /><path fill="#D0D0D0" stroke="none" d="M92 75.5C92 55 92 55 122 55H360C390 55 390 55 390 75.5v-2C390 94 390 94 360 94H122C92 94 92 94 92 73.5v2" /><path stroke="none" fill="#FFFFFF" d="M89 72.5C89 52 89 52 119 52H357C387 52 387 52 387 72.5v-2C387 91 387 91 357 91H119C89 91 89 91 89 70.5v2" /><path stroke="#9A8484" d="M89 72.5C89 52 89 52 119 52H357C387 52 387 52 387 72.5v-2C387 91 387 91 357 91H119C89 91 89 91 89 70.5v2m0 0C89 52 89 52 119 52H357C387 52 387 52 387 72.5v-2C387 91 387 91 357 91H119C89 91 89 91 89 70.5v2" /><text transform="matrix(1 0 0 1 210 60)" fill="#595959" font-weight="bold" stroke="none"><desc xmlns:eadoc="http://www.siemens.com/eauml/doc"><eadoc:guid>EAID_F63B4F4B_A41F_4963_830C_D2248599960C</eadoc:guid><eadoc:name>Media Player</eadoc:name><eadoc:type>Activity</eadoc:type><eadoc:note></eadoc:note></desc><tspan dx="0 " x="0" y="9">Media Player</tspan></text><rect fill="#D0D0D0" stroke="none" x="288" y="232" width="116" height="51" /><rect stroke="none" fill="#FFB6C1" x="285" y="229" width="115" height="50" /><rect stroke="#9A8484" x="285" y="229" width="115" height="51" /><rect stroke="#9A8484" x="285" y="229" width="115" height="50" /><text transform="matrix(1 0 0 1 314 238)" fill="#595959" font-weight="bold" stroke="none"><desc xmlns:eadoc="http://www.siemens.com/eauml/doc"><eadoc:guid>EAID_0C4ECFBE_0E89_485b_9FFA_50D834E1B296</eadoc:guid><eadoc:name>Waltham sink</eadoc:name><eadoc:type>Object</eadoc:type><eadoc:note></eadoc:note></desc><tspan dx="0 " x="0" y="9">Waltham sink</tspan></text><path stroke="#595959" d="M314 250h57" /><path fill="#D0D0D0" stroke="none" d="M92 163.5C92 143 92 143 122 143H360C390 143 390 143 390 163.5v-2C390 182 390 182 360 182H122C92 182 92 182 92 161.5v2" /><path stroke="none" fill="#FFFFFF" d="M89 160.5C89 140 89 140 119 140H357C387 140 387 140 387 160.5v-2C387 179 387 179 357 179H119C89 179 89 179 89 158.5v2" /><path stroke="#9A8484" d="M89 160.5C89 140 89 140 119 140H357C387 140 387 140 387 160.5v-2C387 179 387 179 357 179H119C89 179 89 179 89 158.5v2m0 0C89 140 89 140 119 140H357C387 140 387 140 387 160.5v-2C387 179 387 179 357 179H119C89 179 89 179 89 158.5v2" /><text transform="matrix(1 0 0 1 215 148)" fill="#595959" font-weight="bold" stroke="none"><desc xmlns:eadoc="http://www.siemens.com/eauml/doc"><eadoc:guid>EAID_D7F636E1_D7E8_452a_A820_353FC1913812</eadoc:guid><eadoc:name>GStreamer</eadoc:name><eadoc:type>Activity</eadoc:type><eadoc:note></eadoc:note></desc><tspan dx="0 " x="0" y="9">GStreamer</tspan></text><path fill="#D0D0D0" stroke="none" d="M85 257C85 231 85 231 115 231h11C156 231 156 231 156 257v-2C156 281 156 281 126 281H115C85 281 85 281 85 255v2" /><path stroke="none" fill="#FBF7DB" d="M82 254C82 228 82 228 112 228h11C153 228 153 228 153 254v-2C153 278 153 278 123 278H112C82 278 82 278 82 252v2" /><path stroke="#9A8484" d="M82 254C82 228 82 228 112 228h11C153 228 153 228 153 254v-2C153 278 153 278 123 278H112C82 278 82 278 82 252v2m0 0C82 228 82 228 112 228h11C153 228 153 228 153 254v-2C153 278 153 278 123 278H112C82 278 82 278 82 252v2" /><text transform="matrix(1 0 0 1 105 236)" fill="#595959" font-weight="bold" stroke="none"><desc xmlns:eadoc="http://www.siemens.com/eauml/doc"><eadoc:guid>EAID_C0C381FF_444E_487b_B9F3_4098E0076A2A</eadoc:guid><eadoc:name>filesrc</eadoc:name><eadoc:type>Activity</eadoc:type><eadoc:note></eadoc:note></desc><tspan dx="0 0 " x="0" y="9">fi</tspan><tspan dx="0 " x="5.333333" y="9">l</tspan><tspan dx="0 " x="7.666666" y="9">e</tspan><tspan dx="0 " x="13" y="9">s</tspan><tspan dx="0 " x="17" y="9">r</tspan><tspan dx="0 " x="20.33333" y="9">c</tspan></text><path fill="#D0D0D0" stroke="none" d="M176 256C176 230 176 230 206 230h33C269 230 269 230 269 256v-2C269 280 269 280 239 280H206C176 280 176 280 176 254v2" /><path stroke="none" fill="#FBF7DB" d="M173 253C173 227 173 227 203 227h33C266 227 266 227 266 253v-2C266 277 266 277 236 277H203C173 277 173 277 173 251v2" /><path stroke="#9A8484" d="M173 253C173 227 173 227 203 227h33C266 227 266 227 266 253v-2C266 277 266 277 236 277H203C173 277 173 277 173 251v2m0 0C173 227 173 227 203 227h33C266 227 266 227 266 253v-2C266 277 266 277 236 277H203C173 277 173 277 173 251v2" /><text transform="matrix(1 0 0 1 203 235)" fill="#595959" font-weight="bold" stroke="none"><desc xmlns:eadoc="http://www.siemens.com/eauml/doc"><eadoc:guid>EAID_01E55397_22FB_4386_899E_3E47C7BC7496</eadoc:guid><eadoc:name>decoder</eadoc:name><eadoc:type>Activity</eadoc:type><eadoc:note></eadoc:note></desc><tspan dx="0 " x="0" y="9">decoder</tspan></text><rect fill="#D0D0D0" stroke="none" x="287" y="326" width="116" height="50" /><rect stroke="none" fill="#FFB6C1" x="284" y="323" width="115" height="49" /><rect stroke="#9A8484" x="284" y="323" width="115" height="50" /><rect stroke="#9A8484" x="284" y="323" width="115" height="49" /><text transform="matrix(1 0 0 1 310 332)" fill="#595959" font-weight="bold" stroke="none"><desc xmlns:eadoc="http://www.siemens.com/eauml/doc"><eadoc:guid>EAID_8E073C93_F64F_4084_A837_7F61A90933AE</eadoc:guid><eadoc:name>Waltham Client</eadoc:name><eadoc:type>Object</eadoc:type><eadoc:note></eadoc:note></desc><tspan dx="0 " x="0" y="9">Waltham Client</tspan></text><path stroke="#595959" d="M310 344h64" /><path stroke="#69738C" d="M400 348h84m0 0l-15 6m15 -6l-15 -6" /><path stroke="#69738C" d="M342 180v49m0 0l-6 -15m6 15l6 -15" /><path stroke="#69738C" d="M534 106V323m0 0l-6 -15m6 15l6 -15" /><path stroke="#69738C" d="M484 348H400m0 0l15 -6m-15 6l15 6" /><path stroke="#69738C" d="M219 180v47m0 0l-6 -15m6 15l6 -15" /><path stroke="#69738C" d="M343 280v43m0 0l-6 -15m6 15l6 -15" /><path stroke="#69738C" d="M837 104V323m0 0l-6 -15m6 15l6 -15" /><path stroke="#69738C" d="M721 348h58m0 0l-15 6m15 -6l-15 -6m15 6H721m0 0l15 -6m-15 6l15 6" /><path stroke="#69738C" d="M117 180v48m0 0l-6 -15m6 15l6 -15" /><path stroke="#69738C" d="M238 92v48m0 0l-6 -15m6 15l6 -15" /><path stroke="#69738C" d="M678 106V323m0 0l-6 -15m6 15l6 -15" /><g transform="matrix(1 0 0 -1 421 365)"><rect fill="#FFFFFF" stroke="none" x="0" width="45" y="-13" height="13" /></g><text transform="matrix(1 0 0 1 421 365)" fill="#595959" stroke="none"><tspan dx="0 " x="0" y="9">TCP socket</tspan></text><g transform="matrix(1 0 0 -1 752 364)"><rect fill="#D3D3D3" stroke="none" x="0" width="51" y="-13" height="13" /></g><text transform="matrix(1 0 0 1 752 364)" fill="#595959" stroke="none"><tspan dx="0 " x="0" y="9">Unix domain</tspan></text><g transform="matrix(1 0 0 -1 764 377)"><rect fill="#D3D3D3" stroke="none" x="0" width="27" y="-13" height="13" /></g><text transform="matrix(1 0 0 1 764 377)" fill="#595959" stroke="none"><tspan dx="0 " x="0" y="9">socket</tspan></text></g></g></g></g></svg>