<?xml version="1.0" encoding="utf-8"?><svg version="1.1" preserveAspectRatio="xMidYMid" xml:space="preserve" width="672.45542pt" height="294.769217pt" viewBox="5.66118 0.6901829999999993 672.45542 294.769217" xmlns="http://www.w3.org/2000/svg" xmlns:xlink="http://www.w3.org/1999/xlink"><desc xmlns:eadoc="http://www.siemens.com/eauml/doc"><eadoc:guid>EAID_5470B061_67EA_4e51_907D_67097AF0518D</eadoc:guid><eadoc:name>Waltham_Integration_Possibility-01</eadoc:name><eadoc:type>Diagram</eadoc:type><eadoc:note></eadoc:note></desc><g transform="matrix(1 0 0 -1 0 841)"><g stroke="#000000" fill="none" fill-rule="evenodd" stroke-width="1" stroke-linecap="round" stroke-linejoin="round" stroke-miterlimit="3" letter-spacing="normal" font-weight="normal" font-style="normal" baseline-shift="0"><g transform="matrix(0.75 0 0 0.75 0 841.650024)"><g transform="matrix(0.958679 0 0 -0.95797 0 0)" font-family="CalibriUnicode" font-size="10"><rect fill="#D0D0D0" stroke="none" x="439" y="16" width="493" height="385" /><rect fill="#D3D3D3" stroke="none" x="436" y="13" width="493" height="385" /><rect stroke="#D3D3D3" x="436" y="13" width="492" height="384" /><text transform="matrix(1 0 0 1 661 17)" fill="#595959" stroke="none"><tspan dx="0 " x="0" y="9">OS2/ECU2</tspan></text><rect fill="#D0D0D0" stroke="none" x="22" y="16" width="406" height="385" /><rect fill="#D3D3D3" stroke="none" x="19" y="13" width="406" height="385" /><rect stroke="#D3D3D3" x="19" y="13" width="405" height="384" /><text transform="matrix(1 0 0 1 201 17)" fill="#595959" stroke="none"><tspan dx="0 " x="0" y="9">OS1/ECU1</tspan></text><rect fill="#D0D0D0" stroke="none" x="475" y="295" width="116" height="50" /><rect stroke="none" fill="#FFB6C1" x="472" y="292" width="115" height="49" /><rect stroke="#9A8484" x="472" y="292" width="115" height="50" /><rect stroke="#9A8484" x="472" y="292" width="115" height="49" /><text transform="matrix(1 0 0 1 495 301)" fill="#595959" font-weight="bold" stroke="none"><desc xmlns:eadoc="http://www.siemens.com/eauml/doc"><eadoc:guid>EAID_AAF48EAA_DB6E_4101_8251_7D4C86FC8761</eadoc:guid><eadoc:name>Waltham Server</eadoc:name><eadoc:type>Object</eadoc:type><eadoc:note></eadoc:note></desc><tspan dx="0 " x="0" y="9">Waltham Server</tspan></text><path stroke="#595959" d="M495 313h70" /><rect fill="#D0D0D0" stroke="none" x="782" y="295" width="116" height="50" /><rect stroke="none" fill="#DDF4F5" x="779" y="292" width="115" height="49" /><rect stroke="#9A8484" x="779" y="292" width="115" height="50" /><rect stroke="#9A8484" x="779" y="292" width="115" height="49" /><text transform="matrix(1 0 0 1 802 301)" fill="#595959" font-weight="bold" stroke="none"><desc xmlns:eadoc="http://www.siemens.com/eauml/doc"><eadoc:guid>EAID_BFE3E082_C32E_4b82_8D6C_BE410A20C85A</eadoc:guid><eadoc:name>Wayland Server</eadoc:name><eadoc:type>Object</eadoc:type><eadoc:note></eadoc:note></desc><tspan dx="0 " x="0" y="9">Wayland Server</tspan></text><path stroke="#595959" d="M802 313h69" /><rect fill="#D0D0D0" stroke="none" x="200" y="189" width="111" height="56" /><rect stroke="none" fill="#F5FFFA" x="197" y="186" width="110" height="55" /><rect stroke="#9A8484" x="197" y="186" width="110" height="56" /><rect stroke="#9A8484" x="197" y="186" width="110" height="55" /><text transform="matrix(1 0 0 1 240 195)" fill="#000000" font-size="16" font-weight="bold" stroke="none"><desc xmlns:eadoc="http://www.siemens.com/eauml/doc"><eadoc:guid>EAID_A81C97A2_9D21_427d_9D0C_173F5C999405</eadoc:guid><eadoc:name>EGL</eadoc:name><eadoc:type>Object</eadoc:type><eadoc:note></eadoc:note></desc><tspan dx="0 " x="0" y="16">EGL</tspan></text><path d="M240 213h24" /><rect fill="#D0D0D0" stroke="none" x="463" y="57" width="261" height="52" /><rect stroke="none" fill="#FFB6C1" x="460" y="54" width="260" height="51" /><rect stroke="#9A8484" x="460" y="54" width="260" height="52" /><rect stroke="#9A8484" x="460" y="54" width="260" height="51" /><text transform="matrix(1 0 0 1 527 63)" fill="#595959" font-weight="bold" stroke="none"><desc xmlns:eadoc="http://www.siemens.com/eauml/doc"><eadoc:guid>EAID_67361E96_0B3D_45ea_8C6C_5AB466548532</eadoc:guid><eadoc:name>Waltham Receiver Application</eadoc:name><eadoc:type>Object</eadoc:type><eadoc:note></eadoc:note></desc><tspan dx="0 " x="0" y="9">W</tspan><tspan dx="0 " x="9.333333" y="9">a</tspan><tspan dx="0 " x="14.66667" y="9">l</tspan><tspan dx="0 " x="17" y="9">t</tspan><tspan dx="0 " x="20.33333" y="9">h</tspan><tspan dx="0 " x="26" y="9">a</tspan><tspan dx="0 " x="31.33333" y="9">m</tspan><tspan dx="0 " x="39.33333" y="9"> </tspan><tspan dx="0 " x="41.33333" y="9">R</tspan><tspan dx="0 " x="47" y="9">e</tspan><tspan dx="0 " x="52" y="9">c</tspan><tspan dx="0 " x="56.33333" y="9">e</tspan><tspan dx="0 " x="61.33333" y="9">i</tspan><tspan dx="0 " x="63.66666" y="9">v</tspan><tspan dx="0 " x="68.66666" y="9">e</tspan><tspan dx="0 " x="73.66666" y="9">r</tspan><tspan dx="0 " x="77" y="9"> </tspan><tspan dx="0 " x="79" y="9">A</tspan><tspan dx="0 " x="85" y="9">p</tspan><tspan dx="0 " x="90.33334" y="9">p</tspan><tspan dx="0 " x="95.66667" y="9">l</tspan><tspan dx="0 " x="98.00001" y="9">i</tspan><tspan dx="0 " x="100.3333" y="9">c</tspan><tspan dx="0 " x="104.6667" y="9">a</tspan><tspan dx="0 0 " x="109.6667" y="9">ti</tspan><tspan dx="0 " x="115.3333" y="9">o</tspan><tspan dx="0 " x="120.6667" y="9">n</tspan></text><path stroke="#595959" d="M527 75H653" /><rect fill="#D0D0D0" stroke="none" x="782" y="57" width="116" height="50" /><rect stroke="none" fill="#DDF4F5" x="779" y="54" width="115" height="49" /><rect stroke="#9A8484" x="779" y="54" width="115" height="50" /><rect stroke="#9A8484" x="779" y="54" width="115" height="49" /><text transform="matrix(1 0 0 1 813 63)" fill="#595959" font-weight="bold" stroke="none"><desc xmlns:eadoc="http://www.siemens.com/eauml/doc"><eadoc:guid>EAID_9CD17B23_BEA4_4b78_9CC0_27C19D3F5B0C</eadoc:guid><eadoc:name>Compositor</eadoc:name><eadoc:type>Object</eadoc:type><eadoc:note></eadoc:note></desc><tspan dx="0 " x="0" y="9">Compositor</tspan></text><path stroke="#595959" d="M813 75h48" /><rect fill="#FCF2E3" stroke="none" x="424" y="13" width="15" height="384" /><rect x="424" y="13" width="15" height="385" /></g><g transform="matrix(0.958679 0 0 0.95797 0 0)" font-family="CalibriUnicode" font-size="16"><text transform="matrix(1 0 0 -1 0 0)" fill="#000000" stroke="none"><tspan dx="0 " x="429" y="34">h</tspan></text><text transform="matrix(1 0 0 -1 0 0)" fill="#000000" stroke="none"><tspan dx="0 " x="429" y="53">y</tspan></text><text transform="matrix(1 0 0 -1 0 0)" fill="#000000" stroke="none"><tspan dx="0 " x="429" y="72">p</tspan></text><text transform="matrix(1 0 0 -1 0 0)" fill="#000000" stroke="none"><tspan dx="0 " x="429" y="91">e</tspan></text><text transform="matrix(1 0 0 -1 0 0)" fill="#000000" stroke="none"><tspan dx="0 " x="429" y="110">r</tspan></text><text transform="matrix(1 0 0 -1 0 0)" fill="#000000" stroke="none"><tspan dx="0 " x="429" y="129">vi</tspan></text><text transform="matrix(1 0 0 -1 0 0)" fill="#000000" stroke="none"><tspan dx="0 " x="429" y="148">s</tspan></text><text transform="matrix(1 0 0 -1 0 0)" fill="#000000" stroke="none"><tspan dx="0 " x="429" y="167">o</tspan></text><text transform="matrix(1 0 0 -1 0 0)" fill="#000000" stroke="none"><tspan dx="0 " x="429" y="186">r</tspan></text></g><g transform="matrix(0.958679 0 0 -0.95797 0 0)" font-family="CalibriUnicode" font-size="10"><rect fill="#D0D0D0" stroke="none" x="634" y="295" width="90" height="50" /><rect stroke="none" fill="#DDF4F5" x="631" y="292" width="89" height="49" /><rect stroke="#9A8484" x="631" y="292" width="89" height="50" /><rect stroke="#9A8484" x="631" y="292" width="89" height="49" /><text transform="matrix(1 0 0 1 644 301)" fill="#595959" font-weight="bold" stroke="none"><desc xmlns:eadoc="http://www.siemens.com/eauml/doc"><eadoc:guid>EAID_6A07ACE7_B436_41fb_BDCD_98F5BBCFEB94</eadoc:guid><eadoc:name>Wayland Client</eadoc:name><eadoc:type>Object</eadoc:type><eadoc:note></eadoc:note></desc><tspan dx="0 " x="0" y="9">Wayland Client</tspan></text><path stroke="#595959" d="M644 313h63" /><path fill="#D0D0D0" stroke="none" d="M92 74.5C92 54 92 54 122 54H360C390 54 390 54 390 74.5v-2C390 93 390 93 360 93H122C92 93 92 93 92 72.5v2" /><path stroke="none" fill="#FFFFFF" d="M89 71.5C89 51 89 51 119 51H357C387 51 387 51 387 71.5v-2C387 90 387 90 357 90H119C89 90 89 90 89 69.5v2" /><path stroke="#9A8484" d="M89 71.5C89 51 89 51 119 51H357C387 51 387 51 387 71.5v-2C387 90 387 90 357 90H119C89 90 89 90 89 69.5v2m0 0C89 51 89 51 119 51H357C387 51 387 51 387 71.5v-2C387 90 387 90 357 90H119C89 90 89 90 89 69.5v2" /><text transform="matrix(1 0 0 1 215 59)" fill="#595959" font-weight="bold" stroke="none"><tspan dx="0 " x="0" y="9">A</tspan><tspan dx="0 " x="5.666667" y="9">p</tspan><tspan dx="0 " x="10.66667" y="9">p</tspan><tspan dx="0 " x="15.66667" y="9">l</tspan><tspan dx="0 " x="18" y="9">i</tspan><tspan dx="0 " x="20.33333" y="9">c</tspan><tspan dx="0 " x="24.66666" y="9">a</tspan><tspan dx="0 0 " x="29.66666" y="9">ti</tspan><tspan dx="0 " x="35.33333" y="9">o</tspan><tspan dx="0 " x="40.66666" y="9">n</tspan></text><rect fill="#D0D0D0" stroke="none" x="80" y="187" width="111" height="158" /><rect stroke="none" fill="#F5FFFA" x="77" y="184" width="110" height="157" /><rect stroke="#9A8484" x="77" y="184" width="110" height="158" /><rect stroke="#9A8484" x="77" y="184" width="110" height="157" /><text transform="matrix(1 0 0 1 97 193)" fill="#000000" font-size="16" font-weight="bold" stroke="none"><desc xmlns:eadoc="http://www.siemens.com/eauml/doc"><eadoc:guid>EAID_0AD4B3B4_4900_464a_9D7C_9716C839326E</eadoc:guid><eadoc:name>Open GLES</eadoc:name><eadoc:type>Object</eadoc:type><eadoc:note></eadoc:note></desc><tspan dx="0 " x="0" y="16">Open GLES</tspan></text><path d="M97 211h70" /><rect fill="#D0D0D0" stroke="none" x="200" y="295" width="116" height="50" /><rect stroke="none" fill="#FFB6C1" x="197" y="292" width="115" height="49" /><rect stroke="#9A8484" x="197" y="292" width="115" height="50" /><rect stroke="#9A8484" x="197" y="292" width="115" height="49" /><text transform="matrix(1 0 0 1 223 301)" fill="#595959" font-weight="bold" stroke="none"><desc xmlns:eadoc="http://www.siemens.com/eauml/doc"><eadoc:guid>EAID_39C20FF1_342C_4ad3_97C9_1A09DA757CF7</eadoc:guid><eadoc:name>Waltham Client</eadoc:name><eadoc:type>Object</eadoc:type><eadoc:note></eadoc:note></desc><tspan dx="0 " x="0" y="9">Waltham Client</tspan></text><path stroke="#595959" d="M223 313h64" /><path stroke="#69738C" d="M674 106l3 186m0 0l-6 -15m6 15l6 -15" /><path stroke="#69738C" d="M518 106l3 186m0 0l-6 -15m6 15l6 -15" /><path stroke="#69738C" d="M837 104V292m0 0l-6 -15m6 15l6 -15" /><path stroke="#69738C" d="M779 317H721m0 0l15 -6m-15 6l15 6" /><path stroke="#69738C" d="M472 317H313m0 0l15 -6m-15 6l15 6m-15 -6H472m0 0l-15 6m15 -6l-15 -6" /><path stroke="#69738C" d="M250 242v50m0 0l-6 -15m6 15l6 -15" /><path stroke="#69738C" d="M133 91v93m0 0l-6 -15m6 15l6 -15" /><path stroke="#69738C" d="M251 91v95m0 0l-6 -15m6 15l6 -15" /><path stroke="#69738C" d="M721 317h58m0 0l-15 6m15 -6l-15 -6" /><g transform="matrix(1 0 0 -1 752 333)"><rect fill="#D3D3D3" stroke="none" x="0" width="51" y="-13" height="13" /></g><text transform="matrix(1 0 0 1 752 333)" fill="#595959" stroke="none"><tspan dx="0 " x="0" y="9">Unix domain</tspan></text><g transform="matrix(1 0 0 -1 764 346)"><rect fill="#D3D3D3" stroke="none" x="0" width="27" y="-13" height="13" /></g><text transform="matrix(1 0 0 1 764 346)" fill="#595959" stroke="none"><tspan dx="0 " x="0" y="9">socket</tspan></text><g transform="matrix(1 0 0 -1 356 329)"><rect fill="#D3D3D3" stroke="none" x="0" width="45" y="-13" height="13" /></g><text transform="matrix(1 0 0 1 356 329)" fill="#595959" stroke="none"><tspan dx="0 " x="0" y="9">TCP socket</tspan></text></g></g></g></g></svg>