<?xml version="1.0" encoding="utf-8"?><svg version="1.1" preserveAspectRatio="xMidYMid" xml:space="preserve" width="749.23107pt" height="461.4561pt" viewBox="32.25583 152.2889 749.23107 461.4561" xmlns="http://www.w3.org/2000/svg" xmlns:xlink="http://www.w3.org/1999/xlink"><desc xmlns:eadoc="http://www.siemens.com/eauml/doc"><eadoc:guid>EAID_9ACD5A27_4CD2_4a1e_A922_7C3FF2A7330F</eadoc:guid><eadoc:name>Waltham In Practice</eadoc:name><eadoc:type>Diagram</eadoc:type><eadoc:note></eadoc:note></desc><g transform="matrix(1 0 0 -1 0 841)"><g stroke="#000000" fill="none" fill-rule="evenodd" stroke-width="1" stroke-linecap="round" stroke-linejoin="round" stroke-miterlimit="3" letter-spacing="normal" font-weight="normal" font-style="normal" baseline-shift="0"><g transform="matrix(0.75 0 0 0.75 0 841.650024)"><g transform="matrix(0.958472 0 0 -0.95797 0 0)" font-family="CalibriUnicode" font-size="10"><rect fill="#D0D0D0" stroke="none" x="583" y="230" width="493" height="614" /><rect fill="#D3D3D3" stroke="none" x="580" y="227" width="493" height="614" /><rect stroke="#D3D3D3" x="580" y="227" width="492" height="613" /><text transform="matrix(1 0 0 1 775 231)" fill="#595959" stroke="none"><tspan dx="0 " x="0" y="9">Hypervisor / Receiver side</tspan></text><rect fill="#D0D0D0" stroke="none" x="59" y="227" width="445" height="615" /><rect fill="#D3D3D3" stroke="none" x="56" y="224" width="445" height="615" /><rect stroke="#D3D3D3" x="56" y="224" width="444" height="614" /><text transform="matrix(1 0 0 1 218 228)" fill="#595959" stroke="none"><tspan dx="0 " x="0" y="9">N</tspan><tspan dx="0 " x="7" y="9">a</tspan><tspan dx="0 0 " x="12.33333" y="9">ti</tspan><tspan dx="0 " x="18" y="9">v</tspan><tspan dx="0 " x="22.66667" y="9">e</tspan><tspan dx="0 " x="27.66667" y="9"> </tspan><tspan dx="0 " x="29.66667" y="9">L</tspan><tspan dx="0 " x="34" y="9">i</tspan><tspan dx="0 " x="36.33333" y="9">n</tspan><tspan dx="0 " x="41.66666" y="9">u</tspan><tspan dx="0 " x="47" y="9">x</tspan><tspan dx="0 " x="51.33333" y="9"> </tspan><tspan dx="0 " x="53.33333" y="9">/</tspan><tspan dx="0 " x="57" y="9"> </tspan><tspan dx="0 " x="59" y="9">T</tspan><tspan dx="0 " x="64" y="9">r</tspan><tspan dx="0 " x="67.33333" y="9">a</tspan><tspan dx="0 " x="72.33333" y="9">n</tspan><tspan dx="0 " x="77.66666" y="9">s</tspan><tspan dx="0 " x="81.33333" y="9">m</tspan><tspan dx="0 " x="89.33333" y="9">i</tspan><tspan dx="0 0 " x="91.66666" y="9">tt</tspan><tspan dx="0 " x="98.33333" y="9">e</tspan><tspan dx="0 " x="103.3333" y="9">r</tspan><tspan dx="0 " x="106.6667" y="9"> </tspan><tspan dx="0 " x="108.6667" y="9">s</tspan><tspan dx="0 " x="112.3333" y="9">i</tspan><tspan dx="0 " x="114.6667" y="9">d</tspan><tspan dx="0 " x="120" y="9">e</tspan></text><rect fill="#D0D0D0" stroke="none" x="78" y="343" width="397" height="342" /><rect stroke="none" fill="#F5FFFA" x="75" y="340" width="396" height="341" /><rect stroke="#9A8484" x="75" y="340" width="396" height="342" /><rect stroke="#9A8484" x="75" y="340" width="396" height="341" /><text transform="matrix(1 0 0 1 225 349)" fill="#000000" font-size="16" font-weight="bold" stroke="none"><desc xmlns:eadoc="http://www.siemens.com/eauml/doc"><eadoc:guid>EAID_C99CC98A_14A7_46e6_BC15_12AA4549EE72</eadoc:guid><eadoc:name>agl-compositor</eadoc:name><eadoc:type>Object</eadoc:type><eadoc:note></eadoc:note></desc><tspan dx="0 " x="0" y="16">agl-compositor</tspan></text><path d="M225 367h97" /><path stroke="#9A8484" d="M75 373H471" /><rect fill="#D0D0D0" stroke="none" x="337" y="733" width="87" height="72" /><path stroke="#9A8484" fill="#FFFFFF" d="M337 728h84l-8 8H329l8 -8" /><path stroke="#9A8484" fill="#DCDCDC" d="M421 728v74l-8 8V736l8 -8" /><rect stroke="#9A8484" fill="#FFFFFF" x="329" y="736" width="84" height="74" /><rect stroke="#9A8484" x="329" y="736" width="84" height="74" /><text transform="matrix(1 0 0 1 353 742)" fill="#595959" stroke="none"><tspan dx="0 " x="0" y="9">«device»</tspan></text><text transform="matrix(1 0 0 1 360 755)" fill="#595959" font-weight="bold" stroke="none"><tspan dx="0 " x="0" y="9">input</tspan></text><rect stroke="none" fill="#FFB6C1" x="94" y="604" width="208" height="52" /><rect stroke="#9A8484" x="94" y="604" width="208" height="53" /><text transform="matrix(1 0 0 1 139 613)" fill="#595959" font-weight="bold" stroke="none"><desc xmlns:eadoc="http://www.siemens.com/eauml/doc"><eadoc:guid>EAID_1D7DE6C2_5644_4a6a_820D_985307DD2CD2</eadoc:guid><eadoc:name>Waltham-Transmitter plugin</eadoc:name><eadoc:type>Object</eadoc:type><eadoc:note></eadoc:note></desc><tspan dx="0 " x="0" y="9">W</tspan><tspan dx="0 " x="9.333333" y="9">a</tspan><tspan dx="0 " x="14.66667" y="9">l</tspan><tspan dx="0 " x="17" y="9">t</tspan><tspan dx="0 " x="20.33333" y="9">h</tspan><tspan dx="0 " x="26" y="9">a</tspan><tspan dx="0 " x="31.33333" y="9">m</tspan><tspan dx="0 " x="39.66666" y="9">-</tspan><tspan dx="0 " x="42.66666" y="9">T</tspan><tspan dx="0 " x="48" y="9">r</tspan><tspan dx="0 " x="51.33333" y="9">a</tspan><tspan dx="0 " x="56.66666" y="9">n</tspan><tspan dx="0 " x="62.33333" y="9">s</tspan><tspan dx="0 " x="65.99999" y="9">m</tspan><tspan dx="0 " x="73.99999" y="9">i</tspan><tspan dx="0 0 " x="76.33333" y="9">tt</tspan><tspan dx="0 " x="82.99999" y="9">e</tspan><tspan dx="0 " x="87.99999" y="9">r</tspan><tspan dx="0 " x="91.33333" y="9"> </tspan><tspan dx="0 " x="93.33333" y="9">p</tspan><tspan dx="0 " x="98.66666" y="9">l</tspan><tspan dx="0 " x="101" y="9">u</tspan><tspan dx="0 " x="106.3333" y="9">g</tspan><tspan dx="0 " x="111.3333" y="9">i</tspan><tspan dx="0 " x="113.6667" y="9">n</tspan></text><path stroke="#595959" d="M139 625H258" /><rect fill="#D0D0D0" stroke="none" x="941" y="734" width="87" height="72" /><path stroke="#9A8484" fill="#FFFFFF" d="M941 729h84l-8 8H933l8 -8" /><path stroke="#9A8484" fill="#DCDCDC" d="M1025 729v74l-8 8V737l8 -8" /><rect stroke="#9A8484" fill="#FFFFFF" x="933" y="737" width="84" height="74" /><rect stroke="#9A8484" x="933" y="737" width="84" height="74" /><text transform="matrix(1 0 0 1 958 746)" fill="#595959" font-weight="bold" stroke="none"><tspan dx="0 " x="0" y="9">displays</tspan></text><rect fill="#D0D0D0" stroke="none" x="640" y="734" width="87" height="72" /><path stroke="#9A8484" fill="#FFFFFF" d="M640 729h84l-8 8H632l8 -8" /><path stroke="#9A8484" fill="#DCDCDC" d="M724 729v74l-8 8V737l8 -8" /><rect stroke="#9A8484" fill="#FFFFFF" x="632" y="737" width="84" height="74" /><rect stroke="#9A8484" x="632" y="737" width="84" height="74" /><text transform="matrix(1 0 0 1 656 743)" fill="#595959" stroke="none"><tspan dx="0 " x="0" y="9">«device»</tspan></text><text transform="matrix(1 0 0 1 663 756)" fill="#595959" font-weight="bold" stroke="none"><tspan dx="0 " x="0" y="9">input</tspan></text><rect fill="#D0D0D0" stroke="none" x="609" y="403" width="251" height="157" /><rect stroke="none" fill="#FFB6C1" x="606" y="400" width="250" height="156" /><rect stroke="#9A8484" x="606" y="400" width="250" height="157" /><rect stroke="#9A8484" x="606" y="400" width="250" height="156" /><text transform="matrix(1 0 0 1 692 409)" fill="#595959" font-weight="bold" stroke="none"><desc xmlns:eadoc="http://www.siemens.com/eauml/doc"><eadoc:guid>EAID_3B4E9BC9_4980_4c89_9F49_F4B4DCA2CD79</eadoc:guid><eadoc:name>Waltham-Receiver</eadoc:name><eadoc:type>Object</eadoc:type><eadoc:note></eadoc:note></desc><tspan dx="0 " x="0" y="9">Waltham-Receiver</tspan></text><path stroke="#595959" d="M692 421h79" /><path stroke="#9A8484" d="M606 427H856" /><rect stroke="none" fill="#DDF4F5" x="621" y="440" width="216" height="94" /><rect stroke="#9A8484" x="621" y="440" width="216" height="95" /><text transform="matrix(1 0 0 1 688 449)" fill="#595959" font-weight="bold" stroke="none"><desc xmlns:eadoc="http://www.siemens.com/eauml/doc"><eadoc:guid>EAID_81C4F23C_2810_4fee_A149_81490778F152</eadoc:guid><eadoc:name>(gstreamer decode)</eadoc:name><eadoc:type>Object</eadoc:type><eadoc:note></eadoc:note></desc><tspan dx="0 " x="0" y="9">(gstreamer decode)</tspan></text><path stroke="#595959" d="M688 461h83" /><rect stroke="none" fill="#DDF4F5" x="240" y="457" width="206" height="93" /><rect stroke="#9A8484" x="240" y="457" width="206" height="94" /><text transform="matrix(1 0 0 1 268 466)" fill="#595959" font-weight="bold" stroke="none"><desc xmlns:eadoc="http://www.siemens.com/eauml/doc"><eadoc:guid>EAID_DEE316AC_B029_4c35_B9C9_7E03A69D086B</eadoc:guid><eadoc:name>Remoting plugin(gstreamer encode)</eadoc:name><eadoc:type>Object</eadoc:type><eadoc:note></eadoc:note></desc><tspan dx="0 " x="0" y="9">R</tspan><tspan dx="0 " x="6" y="9">e</tspan><tspan dx="0 " x="11.33333" y="9">m</tspan><tspan dx="0 " x="19.66667" y="9">o</tspan><tspan dx="0 0 " x="25.33333" y="9">ti</tspan><tspan dx="0 " x="31" y="9">n</tspan><tspan dx="0 " x="36.66667" y="9">g</tspan><tspan dx="0 " x="42" y="9"> </tspan><tspan dx="0 " x="44.33333" y="9">p</tspan><tspan dx="0 " x="50" y="9">l</tspan><tspan dx="0 " x="52.33333" y="9">u</tspan><tspan dx="0 " x="58" y="9">g</tspan><tspan dx="0 " x="63.33333" y="9">i</tspan><tspan dx="0 " x="65.66666" y="9">n</tspan><tspan dx="0 " x="71" y="9">(</tspan><tspan dx="0 " x="74" y="9">g</tspan><tspan dx="0 " x="79" y="9">s</tspan><tspan dx="0 " x="82.66666" y="9">t</tspan><tspan dx="0 " x="86" y="9">r</tspan><tspan dx="0 " x="89.33334" y="9">e</tspan><tspan dx="0 " x="94.33334" y="9">a</tspan><tspan dx="0 " x="99.33334" y="9">m</tspan><tspan dx="0 " x="107.3333" y="9">e</tspan><tspan dx="0 " x="112.3333" y="9">r</tspan><tspan dx="0 " x="115.6667" y="9"> </tspan><tspan dx="0 " x="117.6667" y="9">e</tspan><tspan dx="0 " x="122.6667" y="9">n</tspan><tspan dx="0 " x="128" y="9">c</tspan><tspan dx="0 " x="132.3333" y="9">o</tspan><tspan dx="0 " x="137.6667" y="9">d</tspan><tspan dx="0 " x="143" y="9">e</tspan><tspan dx="0 " x="148" y="9">)</tspan></text><path stroke="#595959" d="M268 478H419" /><path stroke="#9A8484" d="M240 484H446" /><path fill="#D0D0D0" stroke="none" d="M203 289C203 272 203 272 233 272h74C337 272 337 272 337 289v-2C337 304 337 304 307 304H233C203 304 203 304 203 287v2" /><path stroke="none" fill="#FBF7DB" d="M200 286C200 269 200 269 230 269h74C334 269 334 269 334 286v-2C334 301 334 301 304 301H230C200 301 200 301 200 284v2" /><path stroke="#9A8484" d="M200 286C200 269 200 269 230 269h74C334 269 334 269 334 286v-2C334 301 334 301 304 301H230C200 301 200 301 200 284v2m0 0C200 269 200 269 230 269h74C334 269 334 269 334 286v-2C334 301 334 301 304 301H230C200 301 200 301 200 284v2" /><text transform="matrix(1 0 0 1 244 277)" fill="#595959" font-weight="bold" stroke="none"><desc xmlns:eadoc="http://www.siemens.com/eauml/doc"><eadoc:guid>EAID_BF4B67C3_34DC_4565_8855_127257447D9C</eadoc:guid><eadoc:name>Application</eadoc:name><eadoc:type>Activity</eadoc:type><eadoc:note></eadoc:note></desc><tspan dx="0 " x="0" y="9">A</tspan><tspan dx="0 " x="5.666667" y="9">p</tspan><tspan dx="0 " x="10.66667" y="9">p</tspan><tspan dx="0 " x="15.66667" y="9">l</tspan><tspan dx="0 " x="18" y="9">i</tspan><tspan dx="0 " x="20.33333" y="9">c</tspan><tspan dx="0 " x="24.66666" y="9">a</tspan><tspan dx="0 0 " x="29.66666" y="9">ti</tspan><tspan dx="0 " x="35.33333" y="9">o</tspan><tspan dx="0 " x="40.66666" y="9">n</tspan></text><path stroke="none" fill="#FBF7DB" d="M240 517C240 491 240 491 265.5 491h2C293 491 293 491 293 517v-2C293 541 293 541 267.5 541h-2C240 541 240 541 240 515v2" /><path stroke="#9A8484" d="M240 517C240 491 240 491 265.5 491h2C293 491 293 491 293 517v-2C293 541 293 541 267.5 541h-2C240 541 240 541 240 515v2m0 0C240 491 240 491 265.5 491h2C293 491 293 491 293 517v-2C293 541 293 541 267.5 541h-2C240 541 240 541 240 515v2" /><text transform="matrix(1 0 0 1 252 499)" fill="#595959" font-weight="bold" stroke="none"><desc xmlns:eadoc="http://www.siemens.com/eauml/doc"><eadoc:guid>EAID_725EFCF6_0198_45e1_96F4_464756D5C725</eadoc:guid><eadoc:name>app src</eadoc:name><eadoc:type>Activity</eadoc:type><eadoc:note></eadoc:note></desc><tspan dx="0 " x="0" y="9">app src</tspan></text><path stroke="none" fill="#FBF7DB" d="M296 517C296 491 296 491 326 491h33C389 491 389 491 389 517v-2C389 541 389 541 359 541H326C296 541 296 541 296 515v2" /><path stroke="#9A8484" d="M296 517C296 491 296 491 326 491h33C389 491 389 491 389 517v-2C389 541 389 541 359 541H326C296 541 296 541 296 515v2m0 0C296 491 296 491 326 491h33C389 491 389 491 389 517v-2C389 541 389 541 359 541H326C296 541 296 541 296 515v2" /><text transform="matrix(1 0 0 1 313 499)" fill="#595959" font-weight="bold" stroke="none"><desc xmlns:eadoc="http://www.siemens.com/eauml/doc"><eadoc:guid>EAID_9F309FFF_8373_49e4_9FC7_8AC8850D454C</eadoc:guid><eadoc:name>h.264 encoder</eadoc:name><eadoc:type>Activity</eadoc:type><eadoc:note></eadoc:note></desc><tspan dx="0 " x="0" y="9">h.264 encoder</tspan></text><path stroke="none" fill="#FBF7DB" d="M392 516C392 490 392 490 417.5 490h2C445 490 445 490 445 516v-2C445 540 445 540 419.5 540h-2C392 540 392 540 392 514v2" /><path stroke="#9A8484" d="M392 516C392 490 392 490 417.5 490h2C445 490 445 490 445 516v-2C445 540 445 540 419.5 540h-2C392 540 392 540 392 514v2m0 0C392 490 392 490 417.5 490h2C445 490 445 490 445 516v-2C445 540 445 540 419.5 540h-2C392 540 392 540 392 514v2" /><text transform="matrix(1 0 0 1 400 498)" fill="#595959" font-weight="bold" stroke="none"><desc xmlns:eadoc="http://www.siemens.com/eauml/doc"><eadoc:guid>EAID_53446509_2D40_4694_A661_513739C9940A</eadoc:guid><eadoc:name>UDP sink</eadoc:name><eadoc:type>Activity</eadoc:type><eadoc:note></eadoc:note></desc><tspan dx="0 " x="0" y="9">UDP sink</tspan></text><rect stroke="none" fill="#FFB6C1" x="365" y="608" width="85" height="49" /><rect stroke="#9A8484" x="365" y="608" width="85" height="50" /><text transform="matrix(1 0 0 1 376 617)" fill="#595959" font-weight="bold" stroke="none"><desc xmlns:eadoc="http://www.siemens.com/eauml/doc"><eadoc:guid>EAID_F89D8626_0875_4a3d_9FCC_69282B8F255E</eadoc:guid><eadoc:name>Waltham Client</eadoc:name><eadoc:type>Object</eadoc:type><eadoc:note></eadoc:note></desc><tspan dx="0 " x="0" y="9">Waltham Client</tspan></text><path stroke="#595959" d="M376 629h64" /><rect fill="#D0D0D0" stroke="none" x="609" y="612" width="86" height="50" /><rect stroke="none" fill="#FFB6C1" x="606" y="609" width="85" height="49" /><rect stroke="#9A8484" x="606" y="609" width="85" height="50" /><rect stroke="#9A8484" x="606" y="609" width="85" height="49" /><text transform="matrix(1 0 0 1 614 618)" fill="#595959" font-weight="bold" stroke="none"><desc xmlns:eadoc="http://www.siemens.com/eauml/doc"><eadoc:guid>EAID_496DD417_9C6B_417e_8DCF_FFA853C9157A</eadoc:guid><eadoc:name>Waltham Server</eadoc:name><eadoc:type>Object</eadoc:type><eadoc:note></eadoc:note></desc><tspan dx="0 " x="0" y="9">Waltham Server</tspan></text><path stroke="#595959" d="M614 630h70" /><path stroke="none" fill="#FBF7DB" d="M772 518C772 492 772 492 802 492h10C842 492 842 492 842 518v-2C842 542 842 542 812 542H802C772 542 772 542 772 516v2" /><path stroke="#9A8484" d="M772 518C772 492 772 492 802 492h10C842 492 842 492 842 518v-2C842 542 842 542 812 542H802C772 542 772 542 772 516v2m0 0C772 492 772 492 802 492h10C842 492 842 492 842 518v-2C842 542 842 542 812 542H802C772 542 772 542 772 516v2" /><text transform="matrix(1 0 0 1 779 500)" fill="#595959" font-weight="bold" stroke="none"><desc xmlns:eadoc="http://www.siemens.com/eauml/doc"><eadoc:guid>EAID_5A671A00_4D6D_465a_A8A4_294077D3D8B0</eadoc:guid><eadoc:name>Wayland sink</eadoc:name><eadoc:type>Activity</eadoc:type><eadoc:note></eadoc:note></desc><tspan dx="0 " x="0" y="9">Wayland sink</tspan></text><path stroke="none" fill="#FBF7DB" d="M678 518C678 492 678 492 708 492h33C771 492 771 492 771 518v-2C771 542 771 542 741 542H708C678 542 678 542 678 516v2" /><path stroke="#9A8484" d="M678 518C678 492 678 492 708 492h33C771 492 771 492 771 518v-2C771 542 771 542 741 542H708C678 542 678 542 678 516v2m0 0C678 492 678 492 708 492h33C771 492 771 492 771 518v-2C771 542 771 542 741 542H708C678 542 678 542 678 516v2" /><text transform="matrix(1 0 0 1 695 500)" fill="#595959" font-weight="bold" stroke="none"><desc xmlns:eadoc="http://www.siemens.com/eauml/doc"><eadoc:guid>EAID_B1273B3B_679D_4229_93C1_B7F6C8CEFA95</eadoc:guid><eadoc:name>h.264 decoder</eadoc:name><eadoc:type>Activity</eadoc:type><eadoc:note></eadoc:note></desc><tspan dx="0 " x="0" y="9">h.264 decoder</tspan></text><path stroke="none" fill="#FBF7DB" d="M622 518C622 492 622 492 647.5 492h2C675 492 675 492 675 518v-2C675 542 675 542 649.5 542h-2C622 542 622 542 622 516v2" /><path stroke="#9A8484" d="M622 518C622 492 622 492 647.5 492h2C675 492 675 492 675 518v-2C675 542 675 542 649.5 542h-2C622 542 622 542 622 516v2m0 0C622 492 622 492 647.5 492h2C675 492 675 492 675 518v-2C675 542 675 542 649.5 542h-2C622 542 622 542 622 516v2" /><text transform="matrix(1 0 0 1 632 500)" fill="#595959" font-weight="bold" stroke="none"><desc xmlns:eadoc="http://www.siemens.com/eauml/doc"><eadoc:guid>EAID_1D0E2FB2_334F_4ade_8768_552CB7FF5187</eadoc:guid><eadoc:name>UDP src</eadoc:name><eadoc:type>Activity</eadoc:type><eadoc:note></eadoc:note></desc><tspan dx="0 " x="0" y="9">UDP src</tspan></text><rect fill="#D0D0D0" stroke="none" x="774" y="612" width="86" height="50" /><rect stroke="none" fill="#DDF4F5" x="771" y="609" width="85" height="49" /><rect stroke="#9A8484" x="771" y="609" width="85" height="50" /><rect stroke="#9A8484" x="771" y="609" width="85" height="49" /><text transform="matrix(1 0 0 1 782 618)" fill="#595959" font-weight="bold" stroke="none"><desc xmlns:eadoc="http://www.siemens.com/eauml/doc"><eadoc:guid>EAID_C4177337_4679_49a6_A7C2_BA786638FA1C</eadoc:guid><eadoc:name>Wayland Client</eadoc:name><eadoc:type>Object</eadoc:type><eadoc:note></eadoc:note></desc><tspan dx="0 " x="0" y="9">Wayland Client</tspan></text><path stroke="#595959" d="M782 630h63" /><rect fill="#D0D0D0" stroke="none" x="939" y="612" width="86" height="50" /><rect stroke="none" fill="#DDF4F5" x="936" y="609" width="85" height="49" /><rect stroke="#9A8484" x="936" y="609" width="85" height="50" /><rect stroke="#9A8484" x="936" y="609" width="85" height="49" /><text transform="matrix(1 0 0 1 944 618)" fill="#595959" font-weight="bold" stroke="none"><desc xmlns:eadoc="http://www.siemens.com/eauml/doc"><eadoc:guid>EAID_9F308F04_1B87_4dd3_9F19_2C26BDE6021A</eadoc:guid><eadoc:name>Wayland Server</eadoc:name><eadoc:type>Object</eadoc:type><eadoc:note></eadoc:note></desc><tspan dx="0 " x="0" y="9">Wayland Server</tspan></text><path stroke="#595959" d="M944 630h69" /><path fill="#D0D0D0" stroke="none" d="M735 359.5C735 344 735 344 765 344h43C838 344 838 344 838 359.5v-2C838 373 838 373 808 373H765C735 373 735 373 735 357.5v2" /><path stroke="none" fill="#FFFFFF" d="M732 356.5C732 341 732 341 762 341h43C835 341 835 341 835 356.5v-2C835 370 835 370 805 370H762C732 370 732 370 732 354.5v2" /><path stroke="#9A8484" d="M732 356.5C732 341 732 341 762 341h43C835 341 835 341 835 356.5v-2C835 370 835 370 805 370H762C732 370 732 370 732 354.5v2m0 0C732 341 732 341 762 341h43C835 341 835 341 835 356.5v-2C835 370 835 370 805 370H762C732 370 732 370 732 354.5v2" /><text transform="matrix(1 0 0 1 761 349)" fill="#595959" font-weight="bold" stroke="none"><tspan dx="0 " x="0" y="9">A</tspan><tspan dx="0 " x="5.666667" y="9">p</tspan><tspan dx="0 " x="10.66667" y="9">p</tspan><tspan dx="0 " x="15.66667" y="9">l</tspan><tspan dx="0 " x="18" y="9">i</tspan><tspan dx="0 " x="20.33333" y="9">c</tspan><tspan dx="0 " x="24.66666" y="9">a</tspan><tspan dx="0 0 " x="29.66666" y="9">ti</tspan><tspan dx="0 " x="35.33333" y="9">o</tspan><tspan dx="0 " x="40.66666" y="9">n</tspan></text><rect fill="#D0D0D0" stroke="none" x="911" y="340" width="123" height="42" /><rect stroke="none" fill="#F5FFFA" x="908" y="337" width="122" height="41" /><rect stroke="#9A8484" x="908" y="337" width="122" height="42" /><rect stroke="#9A8484" x="908" y="337" width="122" height="41" /><text transform="matrix(1 0 0 1 933 346)" fill="#000000" font-size="16" font-weight="bold" stroke="none"><tspan dx="0 " x="0" y="16">compositor</tspan></text><path d="M933 364h73" /><path stroke="#69738C" d="M303 634h62m0 0l-15 6m15 -6l-15 -6" /><path stroke="#69738C" d="M976 379V609m0 0l-6 -15m6 15l6 -15" /><path stroke="#69738C" d="M836 356l72 1m0 0l-15 6m15 -6l-15 -6" /><path stroke="#69738C" d="M936 634H857m0 0l15 -6m-15 6l15 6m-15 -6h79m0 0l-15 6m15 -6l-15 -6" /><path stroke="#69738C" d="M978 659v70m0 0l-6 -15m6 15l6 -15" /><path stroke="#69738C" d="M371 728l-1 -46m0 0l6 15m-6 -15l-6 15" /><path stroke="#69738C" d="M268 340l-1 -38" /><path stroke="#69738C" d="M268 340l6 -15m-6 15l-6 -15" /><path stroke="#69738C" d="M446 517H622m0 0l-15 6m15 -6l-15 -6" /><path stroke="#69738C" d="M649 729V659m0 0l6 15m-6 -15l-6 15" /><path stroke="#69738C" d="M814 543v66m0 0l-6 -15m6 15l6 -15" /><path stroke="#69738C" d="M652 557v52m0 0l-6 -15m6 15l6 -15" /><path stroke="#69738C" d="M451 634H606m0 0l-15 6m15 -6l-15 -6m15 6H451m0 0l15 -6m-15 6l15 6" /><g transform="matrix(1 0 0 -1 753 580)"><rect fill="#D3D3D3" stroke="none" x="0" width="44" y="-13" height="13" /></g><text transform="matrix(1 0 0 1 753 580)" fill="#595959" stroke="none"><tspan dx="0 " x="0" y="9">[Walyand]</tspan></text><g transform="matrix(1 0 0 -1 515 525)"><rect fill="#FFFFFF" stroke="none" x="0" width="52" y="-13" height="13" /></g><text transform="matrix(1 0 0 1 515 525)" fill="#595959" stroke="none"><tspan dx="0 " x="0" y="9">B</tspan><tspan dx="0 " x="5.666667" y="9">u</tspan><tspan dx="0 0 " x="11" y="9">ff</tspan><tspan dx="0 " x="17" y="9">e</tspan><tspan dx="0 " x="22" y="9">r</tspan><tspan dx="0 " x="25.33333" y="9">s</tspan><tspan dx="0 " x="29" y="9"> </tspan><tspan dx="0 " x="31" y="9">(</tspan><tspan dx="0 " x="34" y="9">U</tspan><tspan dx="0 " x="40.33333" y="9">D</tspan><tspan dx="0 " x="46.66666" y="9">P</tspan></text><g transform="matrix(1 0 0 -1 526 538)"><rect fill="#FFFFFF" stroke="none" x="0" width="30" y="-13" height="13" /></g><text transform="matrix(1 0 0 1 526 538)" fill="#595959" stroke="none"><tspan dx="0 " x="0" y="9">socket)</tspan></text><g transform="matrix(1 0 0 -1 871 640)"><rect fill="#D3D3D3" stroke="none" x="0" width="51" y="-13" height="13" /></g><text transform="matrix(1 0 0 1 871 640)" fill="#595959" stroke="none"><tspan dx="0 " x="0" y="9">Unix domain</tspan></text><g transform="matrix(1 0 0 -1 883 653)"><rect fill="#D3D3D3" stroke="none" x="0" width="27" y="-13" height="13" /></g><text transform="matrix(1 0 0 1 883 653)" fill="#595959" stroke="none"><tspan dx="0 " x="0" y="9">socket</tspan></text><g transform="matrix(1 0 0 -1 510 646)"><rect fill="#FFFFFF" stroke="none" x="0" width="68" y="-13" height="13" /></g><text transform="matrix(1 0 0 1 510 646)" fill="#595959" stroke="none"><tspan dx="0 " x="0" y="9">[Waltham]  (TCP</tspan></text><g transform="matrix(1 0 0 -1 529 659)"><rect fill="#FFFFFF" stroke="none" x="0" width="30" y="-13" height="13" /></g><text transform="matrix(1 0 0 1 529 659)" fill="#595959" stroke="none"><tspan dx="0 " x="0" y="9">socket)</tspan></text></g></g></g></g></svg>