<?xml version="1.0" encoding="utf-8"?><svg version="1.1" preserveAspectRatio="xMidYMid" xml:space="preserve" width="824.01469pt" height="312.012739pt" viewBox="11.40961 1.4086610000000003 824.01469 312.012739" xmlns="http://www.w3.org/2000/svg" xmlns:xlink="http://www.w3.org/1999/xlink"><desc xmlns:eadoc="http://www.siemens.com/eauml/doc"><eadoc:guid>EAID_FAA03441_612B_4807_9E8F_D1DC762DE0EC</eadoc:guid><eadoc:name>Waltham_Integration_Possibility-03</eadoc:name><eadoc:type>Diagram</eadoc:type><eadoc:note></eadoc:note></desc><g transform="matrix(1 0 0 -1 0 841)"><g stroke="#000000" fill="none" fill-rule="evenodd" stroke-width="1" stroke-linecap="round" stroke-linejoin="round" stroke-miterlimit="3" letter-spacing="normal" font-weight="normal" font-style="normal" baseline-shift="0"><g transform="matrix(0.75 0 0 0.75 0 841.650024)"><g transform="matrix(0.958499 0 0 -0.95797 0 0)" font-family="CalibriUnicode" font-size="10"><rect fill="#D0D0D0" stroke="none" x="658" y="17" width="493" height="408" /><rect fill="#D3D3D3" stroke="none" x="655" y="14" width="493" height="408" /><rect stroke="#D3D3D3" x="655" y="14" width="492" height="407" /><text transform="matrix(1 0 0 1 880 18)" fill="#595959" stroke="none"><tspan dx="0 " x="0" y="9">OS2/ECU2</tspan></text><rect fill="#D0D0D0" stroke="none" x="30" y="18" width="616" height="408" /><rect fill="#D3D3D3" stroke="none" x="27" y="15" width="616" height="408" /><rect stroke="#D3D3D3" x="27" y="15" width="615" height="407" /><text transform="matrix(1 0 0 1 314 19)" fill="#595959" stroke="none"><tspan dx="0 " x="0" y="9">OS1/ECU1</tspan></text><rect fill="#D0D0D0" stroke="none" x="687" y="269" width="116" height="50" /><rect stroke="none" fill="#FFB6C1" x="684" y="266" width="115" height="49" /><rect stroke="#9A8484" x="684" y="266" width="115" height="50" /><rect stroke="#9A8484" x="684" y="266" width="115" height="49" /><text transform="matrix(1 0 0 1 707 275)" fill="#595959" font-weight="bold" stroke="none"><desc xmlns:eadoc="http://www.siemens.com/eauml/doc"><eadoc:guid>EAID_3D3A6567_EDCE_4751_8F1E_5D92C6173B4E</eadoc:guid><eadoc:name>Waltham Server</eadoc:name><eadoc:type>Object</eadoc:type><eadoc:note></eadoc:note></desc><tspan dx="0 " x="0" y="9">Waltham Server</tspan></text><path stroke="#595959" d="M707 287h70" /><rect fill="#D0D0D0" stroke="none" x="1001" y="327" width="116" height="50" /><rect stroke="none" fill="#DDF4F5" x="998" y="324" width="115" height="49" /><rect stroke="#9A8484" x="998" y="324" width="115" height="50" /><rect stroke="#9A8484" x="998" y="324" width="115" height="49" /><text transform="matrix(1 0 0 1 1021 333)" fill="#595959" font-weight="bold" stroke="none"><desc xmlns:eadoc="http://www.siemens.com/eauml/doc"><eadoc:guid>EAID_6EDECE12_207E_4100_BBFA_CD1E904515B4</eadoc:guid><eadoc:name>Wayland Server</eadoc:name><eadoc:type>Object</eadoc:type><eadoc:note></eadoc:note></desc><tspan dx="0 " x="0" y="9">Wayland Server</tspan></text><path stroke="#595959" d="M1021 345h69" /><rect fill="#D0D0D0" stroke="none" x="686" y="58" width="261" height="52" /><rect stroke="none" fill="#FFB6C1" x="683" y="55" width="260" height="51" /><rect stroke="#9A8484" x="683" y="55" width="260" height="52" /><rect stroke="#9A8484" x="683" y="55" width="260" height="51" /><text transform="matrix(1 0 0 1 750 64)" fill="#595959" font-weight="bold" stroke="none"><desc xmlns:eadoc="http://www.siemens.com/eauml/doc"><eadoc:guid>EAID_4781ED5E_D534_4b9e_A85C_12A23408A065</eadoc:guid><eadoc:name>Waltham Receiver Application</eadoc:name><eadoc:type>Object</eadoc:type><eadoc:note></eadoc:note></desc><tspan dx="0 " x="0" y="9">W</tspan><tspan dx="0 " x="9.333333" y="9">a</tspan><tspan dx="0 " x="14.66667" y="9">l</tspan><tspan dx="0 " x="17" y="9">t</tspan><tspan dx="0 " x="20.33333" y="9">h</tspan><tspan dx="0 " x="26" y="9">a</tspan><tspan dx="0 " x="31.33333" y="9">m</tspan><tspan dx="0 " x="39.33333" y="9"> </tspan><tspan dx="0 " x="41.33333" y="9">R</tspan><tspan dx="0 " x="47" y="9">e</tspan><tspan dx="0 " x="52" y="9">c</tspan><tspan dx="0 " x="56.33333" y="9">e</tspan><tspan dx="0 " x="61.33333" y="9">i</tspan><tspan dx="0 " x="63.66666" y="9">v</tspan><tspan dx="0 " x="68.66666" y="9">e</tspan><tspan dx="0 " x="73.66666" y="9">r</tspan><tspan dx="0 " x="77" y="9"> </tspan><tspan dx="0 " x="79" y="9">A</tspan><tspan dx="0 " x="85" y="9">p</tspan><tspan dx="0 " x="90.33334" y="9">p</tspan><tspan dx="0 " x="95.66667" y="9">l</tspan><tspan dx="0 " x="98.00001" y="9">i</tspan><tspan dx="0 " x="100.3333" y="9">c</tspan><tspan dx="0 " x="104.6667" y="9">a</tspan><tspan dx="0 0 " x="109.6667" y="9">ti</tspan><tspan dx="0 " x="115.3333" y="9">o</tspan><tspan dx="0 " x="120.6667" y="9">n</tspan></text><path stroke="#595959" d="M750 76H876" /><rect fill="#D0D0D0" stroke="none" x="1001" y="58" width="116" height="50" /><rect stroke="none" fill="#DDF4F5" x="998" y="55" width="115" height="49" /><rect stroke="#9A8484" x="998" y="55" width="115" height="50" /><rect stroke="#9A8484" x="998" y="55" width="115" height="49" /><text transform="matrix(1 0 0 1 1032 64)" fill="#595959" font-weight="bold" stroke="none"><tspan dx="0 " x="0" y="9">Compositor</tspan></text><path stroke="#595959" d="M1032 76h48" /><rect fill="#FCF2E3" stroke="none" x="642" y="15" width="15" height="410" /><rect x="642" y="15" width="15" height="411" /></g><g transform="matrix(0.958499 0 0 0.95797 0 0)" font-family="CalibriUnicode" font-size="16"><text transform="matrix(1 0 0 -1 0 0)" fill="#000000" stroke="none"><tspan dx="0 " x="647" y="36">h</tspan></text><text transform="matrix(1 0 0 -1 0 0)" fill="#000000" stroke="none"><tspan dx="0 " x="647" y="55">y</tspan></text><text transform="matrix(1 0 0 -1 0 0)" fill="#000000" stroke="none"><tspan dx="0 " x="647" y="74">p</tspan></text><text transform="matrix(1 0 0 -1 0 0)" fill="#000000" stroke="none"><tspan dx="0 " x="647" y="93">e</tspan></text><text transform="matrix(1 0 0 -1 0 0)" fill="#000000" stroke="none"><tspan dx="0 " x="647" y="112">r</tspan></text><text transform="matrix(1 0 0 -1 0 0)" fill="#000000" stroke="none"><tspan dx="0 " x="647" y="131">vi</tspan></text><text transform="matrix(1 0 0 -1 0 0)" fill="#000000" stroke="none"><tspan dx="0 " x="647" y="150">s</tspan></text><text transform="matrix(1 0 0 -1 0 0)" fill="#000000" stroke="none"><tspan dx="0 " x="647" y="169">o</tspan></text><text transform="matrix(1 0 0 -1 0 0)" fill="#000000" stroke="none"><tspan dx="0 " x="647" y="188">r</tspan></text></g><g transform="matrix(0.958499 0 0 -0.95797 0 0)" font-family="CalibriUnicode" font-size="10"><rect fill="#D0D0D0" stroke="none" x="853" y="327" width="90" height="50" /><rect stroke="none" fill="#DDF4F5" x="850" y="324" width="89" height="49" /><rect stroke="#9A8484" x="850" y="324" width="89" height="50" /><rect stroke="#9A8484" x="850" y="324" width="89" height="49" /><text transform="matrix(1 0 0 1 863 333)" fill="#595959" font-weight="bold" stroke="none"><desc xmlns:eadoc="http://www.siemens.com/eauml/doc"><eadoc:guid>EAID_8B977290_F36D_4a9d_85FA_8E2E1C7201B5</eadoc:guid><eadoc:name>Wayland Client</eadoc:name><eadoc:type>Object</eadoc:type><eadoc:note></eadoc:note></desc><tspan dx="0 " x="0" y="9">Wayland Client</tspan></text><path stroke="#595959" d="M863 345h63" /><path fill="#D0D0D0" stroke="none" d="M62 77.5C62 57 62 57 92 57H330C360 57 360 57 360 77.5v-2C360 96 360 96 330 96H92C62 96 62 96 62 75.5v2" /><path stroke="none" fill="#FFFFFF" d="M59 74.5C59 54 59 54 89 54H327C357 54 357 54 357 74.5v-2C357 93 357 93 327 93H89C59 93 59 93 59 72.5v2" /><path stroke="#9A8484" d="M59 74.5C59 54 59 54 89 54H327C357 54 357 54 357 74.5v-2C357 93 357 93 327 93H89C59 93 59 93 59 72.5v2m0 0C59 54 59 54 89 54H327C357 54 357 54 357 74.5v-2C357 93 357 93 327 93H89C59 93 59 93 59 72.5v2" /><text transform="matrix(1 0 0 1 185 62)" fill="#595959" font-weight="bold" stroke="none"><tspan dx="0 " x="0" y="9">A</tspan><tspan dx="0 " x="5.666667" y="9">p</tspan><tspan dx="0 " x="10.66667" y="9">p</tspan><tspan dx="0 " x="15.66667" y="9">l</tspan><tspan dx="0 " x="18" y="9">i</tspan><tspan dx="0 " x="20.33333" y="9">c</tspan><tspan dx="0 " x="24.66666" y="9">a</tspan><tspan dx="0 0 " x="29.66666" y="9">ti</tspan><tspan dx="0 " x="35.33333" y="9">o</tspan><tspan dx="0 " x="40.66666" y="9">n</tspan></text><rect fill="#D0D0D0" stroke="none" x="471" y="268" width="116" height="50" /><rect stroke="none" fill="#FFB6C1" x="468" y="265" width="115" height="49" /><rect stroke="#9A8484" x="468" y="265" width="115" height="50" /><rect stroke="#9A8484" x="468" y="265" width="115" height="49" /><text transform="matrix(1 0 0 1 494 274)" fill="#595959" font-weight="bold" stroke="none"><desc xmlns:eadoc="http://www.siemens.com/eauml/doc"><eadoc:guid>EAID_7B76CFD7_C6A8_4b58_9862_E91F57F1F80C</eadoc:guid><eadoc:name>Waltham Client</eadoc:name><eadoc:type>Object</eadoc:type><eadoc:note></eadoc:note></desc><tspan dx="0 " x="0" y="9">Waltham Client</tspan></text><path stroke="#595959" d="M494 286h64" /><rect fill="#D0D0D0" stroke="none" x="175" y="211" width="111" height="56" /><rect stroke="none" fill="#F5FFFA" x="172" y="208" width="110" height="55" /><rect stroke="#9A8484" x="172" y="208" width="110" height="56" /><rect stroke="#9A8484" x="172" y="208" width="110" height="55" /><text transform="matrix(1 0 0 1 215 217)" fill="#000000" font-size="16" font-weight="bold" stroke="none"><desc xmlns:eadoc="http://www.siemens.com/eauml/doc"><eadoc:guid>EAID_5ADEF1F8_9100_48ab_883E_81A697C7C0E7</eadoc:guid><eadoc:name>EGL</eadoc:name><eadoc:type>Object</eadoc:type><eadoc:note></eadoc:note></desc><tspan dx="0 " x="0" y="16">EGL</tspan></text><path d="M215 235h24" /><rect fill="#D0D0D0" stroke="none" x="58" y="211" width="111" height="158" /><rect stroke="none" fill="#F5FFFA" x="55" y="208" width="110" height="157" /><rect stroke="#9A8484" x="55" y="208" width="110" height="158" /><rect stroke="#9A8484" x="55" y="208" width="110" height="157" /><text transform="matrix(1 0 0 1 75 217)" fill="#000000" font-size="16" font-weight="bold" stroke="none"><desc xmlns:eadoc="http://www.siemens.com/eauml/doc"><eadoc:guid>EAID_84A31A18_E879_4a56_8BB2_05BA0ED57616</eadoc:guid><eadoc:name>Open GLES</eadoc:name><eadoc:type>Object</eadoc:type><eadoc:note></eadoc:note></desc><tspan dx="0 " x="0" y="16">Open GLES</tspan></text><path d="M75 235h70" /><rect fill="#D0D0D0" stroke="none" x="384" y="328" width="116" height="50" /><rect stroke="none" fill="#DDF4F5" x="381" y="325" width="115" height="49" /><rect stroke="#9A8484" x="381" y="325" width="115" height="50" /><rect stroke="#9A8484" x="381" y="325" width="115" height="49" /><text transform="matrix(1 0 0 1 404 334)" fill="#595959" font-weight="bold" stroke="none"><tspan dx="0 " x="0" y="9">Wayland Server</tspan></text><path stroke="#595959" d="M404 346h69" /><rect fill="#D0D0D0" stroke="none" x="175" y="325" width="157" height="50" /><rect stroke="none" fill="#DDF4F5" x="172" y="322" width="156" height="49" /><rect stroke="#9A8484" x="172" y="322" width="156" height="50" /><rect stroke="#9A8484" x="172" y="322" width="156" height="49" /><text transform="matrix(1 0 0 1 219 331)" fill="#595959" font-weight="bold" stroke="none"><tspan dx="0 " x="0" y="9">Wayland Client</tspan></text><path stroke="#595959" d="M219 343h63" /><rect fill="#D0D0D0" stroke="none" x="386" y="55" width="218" height="145" /><rect stroke="none" fill="#DDF4F5" x="383" y="52" width="217" height="144" /><rect stroke="#9A8484" x="383" y="52" width="217" height="145" /><rect stroke="#9A8484" x="383" y="52" width="217" height="144" /><text transform="matrix(1 0 0 1 468 61)" fill="#595959" font-weight="bold" stroke="none"><tspan dx="0 " x="0" y="9">Compositor</tspan></text><path stroke="#595959" d="M468 73h48" /><path stroke="#9A8484" d="M383 79H600" /><rect stroke="none" fill="#FFB6C1" x="473" y="130" width="115" height="49" /><rect stroke="#9A8484" x="473" y="130" width="115" height="50" /><text transform="matrix(1 0 0 1 481 139)" fill="#595959" font-weight="bold" stroke="none"><desc xmlns:eadoc="http://www.siemens.com/eauml/doc"><eadoc:guid>EAID_124F5BE4_A8FA_4e2e_8389_6208249DFF5C</eadoc:guid><eadoc:name>Waltham Virtual display</eadoc:name><eadoc:type>Object</eadoc:type><eadoc:note></eadoc:note></desc><tspan dx="0 " x="0" y="9">Waltham Virtual display</tspan></text><path stroke="#595959" d="M481 151H581" /><path stroke="#69738C" d="M432 197V325m0 0l-6 -15m6 15l6 -15" /><path stroke="#69738C" d="M107 94V208m0 0l-6 -15m6 15l6 -15" /><path stroke="#69738C" d="M223 264v58m0 0l-6 -15m6 15l6 -15" /><path stroke="#69738C" d="M526 180v85m0 0l-6 -15m6 15l6 -15" /><path stroke="#69738C" d="M734 107V266m0 0l-6 -15m6 15l6 -15" /><path stroke="#69738C" d="M584 290H684m0 0l-15 6m15 -6l-15 -6" /><path stroke="#69738C" d="M1056 105V324m0 0l-6 -15m6 15l6 -15" /><path stroke="#69738C" d="M998 349H940m0 0l15 -6m-15 6l15 6m-15 -6h58m0 0l-15 6m15 -6l-15 -6" /><path stroke="#69738C" d="M897 107V324m0 0l-6 -15m6 15l6 -15" /><path stroke="#69738C" d="M310 94V322m0 0l-6 -15m6 15l6 -15" /><path stroke="#69738C" d="M224 94V208m0 0l-6 -15m6 15l6 -15" /><path stroke="#69738C" d="M329 347h52m0 0l-15 6m15 -6l-15 -6m15 6H329m0 0l15 -6m-15 6l15 6" /><g transform="matrix(1 0 0 -1 971 365)"><rect fill="#D3D3D3" stroke="none" x="0" width="51" y="-13" height="13" /></g><text transform="matrix(1 0 0 1 971 365)" fill="#595959" stroke="none"><tspan dx="0 " x="0" y="9">Unix domain</tspan></text><g transform="matrix(1 0 0 -1 983 378)"><rect fill="#D3D3D3" stroke="none" x="0" width="27" y="-13" height="13" /></g><text transform="matrix(1 0 0 1 983 378)" fill="#595959" stroke="none"><tspan dx="0 " x="0" y="9">socket</tspan></text><g transform="matrix(1 0 0 -1 606 304)"><rect fill="#FFFFFF" stroke="none" x="0" width="45" y="-13" height="13" /></g><text transform="matrix(1 0 0 1 606 304)" fill="#595959" stroke="none"><tspan dx="0 " x="0" y="9">TCP socket</tspan></text><g transform="matrix(1 0 0 -1 354 363)"><rect fill="#D3D3D3" stroke="none" x="0" width="51" y="-13" height="13" /></g><text transform="matrix(1 0 0 1 354 363)" fill="#595959" stroke="none"><tspan dx="0 " x="0" y="9">Unix domain</tspan></text><g transform="matrix(1 0 0 -1 366 376)"><rect fill="#D3D3D3" stroke="none" x="0" width="27" y="-13" height="13" /></g><text transform="matrix(1 0 0 1 366 376)" fill="#595959" stroke="none"><tspan dx="0 " x="0" y="9">socket</tspan></text></g></g></g></g></svg>